<?xml version="1.0" encoding="UTF-8" standalone="no"?>
<svg
   xmlns="http://www.w3.org/2000/svg"
   viewBox="0 0 346.80036 326.81296"
   height="326.81296"
   width="346.80035"
   version="1.1"
   id="svg3336">
  <path
     id="path3334"
     d="m 0,325.30685 0,-1.5061 173.39999,0 173.4,0 0,1.5061 0,1.5061 -173.4,0 -173.39999,0 0,-1.5061 z m 260.54999,-9.94844 c -7.3187,-0.79332 -12.80645,-4.16803 -15.89798,-9.7765 -3.72649,-6.76042 -3.62583,-18.00311 0.22254,-24.85555 1.49694,-2.66545 4.81551,-5.74322 7.75861,-7.19562 4.26571,-2.1051 6.45693,-2.54335 12.71683,-2.54335 4.55515,0 5.75876,0.0989 7.69306,0.63189 5.90199,1.62639 10.05735,4.90251 12.50634,9.86013 1.34888,2.73062 1.86394,5.03836 2.05046,9.1872 0.37131,8.25944 -1.86309,14.476 -6.87902,19.13888 -3.47908,3.23417 -7.60003,4.93491 -13.45881,5.55452 -3.1097,0.32887 -3.66449,0.32872 -6.71203,-0.003 z m 9.52846,-4.48913 c 3.37118,-1.30537 5.79273,-4.57745 7.18546,-9.70921 0.92074,-3.39263 0.9891,-11.85455 0.12249,-15.16237 -1.54697,-5.90473 -4.66565,-9.66723 -8.98639,-10.84156 -2.91502,-0.79227 -6.9472,-0.54366 -9.42031,0.5808 -2.17278,0.98791 -4.1454,2.94402 -5.3241,5.27953 -2.98166,5.90796 -2.90479,16.56153 0.16732,23.18794 1.69798,3.66243 4.42887,6.14939 7.77707,7.08236 2.31008,0.64371 6.23727,0.45032 8.47846,-0.41749 z M 2.4907796,313.96449 c -0.0732,-0.1913 -0.0898,-0.80127 -0.0369,-1.35549 0.0955,-1.00086 0.10927,-1.00926 2.04614,-1.24732 1.0725,-0.13184 2.1525,-0.44168 2.4,-0.68852 0.38956,-0.38852 0.45,-2.76719 0.45,-17.71186 0,-13.9125 -0.0774,-17.35667 -0.39859,-17.7453 -0.2569,-0.31079 -1.14196,-0.55576 -2.48979,-0.68912 l -2.09121,-0.20689 0.0898,-1.36592 0.0898,-1.36592 23.2500004,0.0358 23.25,0.0358 0,1.2952 0,1.29519 -2.17997,0.25504 c -1.76212,0.20615 -2.25089,0.37935 -2.55,0.90365 -0.27497,0.482 -0.39618,4.3245 -0.4718,14.95656 -0.10478,14.73171 0.0484,19.49279 0.65317,20.30734 0.22178,0.29866 1.11259,0.55301 2.4486,0.69904 l 2.1,0.22959 0,1.34796 0,1.34793 -9.6,-0.0424 -9.6,-0.0424 0,-1.30515 0,-1.30518 1.95,-0.24008 c 1.0725,-0.13202 2.1525,-0.44194 2.4,-0.68867 0.38775,-0.38653 0.46195,-2.88475 0.53642,-18.05939 l 0.0864,-17.61079 -8.97064,0 -8.97064,0 -0.19078,1.39753 c -0.26612,1.94943 -0.19721,30.62925 0.0783,32.57214 0.12388,0.87369 0.35984,1.7237 0.52437,1.88892 0.16453,0.16519 1.20082,0.3849 2.30287,0.48822 l 2.00373,0.18787 2e-5,1.38723 3e-5,1.38724 -9.48811,0 c -6.8965204,0 -9.5244504,-0.095 -9.6211604,-0.34785 z m 52.5357704,0.22233 c -0.0696,-0.069 -0.12655,-0.43984 -0.12655,-0.82408 0,-0.47906 0.36998,-0.94441 1.17748,-1.48094 0.64762,-0.43032 1.26593,-1.00833 1.37403,-1.28446 0.31083,-0.79405 0.55754,-24.69522 0.30917,-29.95243 -0.27002,-5.71535 -0.3258,-5.82412 -3.16068,-6.16266 l -1.95,-0.23287 0,-1.27634 0,-1.27634 15.69935,-0.0858 c 8.63465,-0.0472 15.75356,0.002 15.81981,0.10994 0.13758,0.22352 -0.70048,8.64871 -0.92007,9.2497 -0.0931,0.25476 -0.54425,0.36164 -1.27168,0.30122 L 80.85,281.17816 80.7,278.85765 c -0.0825,-1.27629 -0.29937,-2.46998 -0.48193,-2.65267 -0.72963,-0.73011 -12.49079,-1.22921 -13.15887,-0.5584 -0.10049,0.10089 -0.21117,3.42 -0.24596,7.37581 l -0.0632,7.19236 5.15059,0 c 2.83283,0 5.23813,-0.0882 5.34513,-0.19592 0.10699,-0.10775 0.33781,-1.16519 0.51293,-2.34988 l 0.3184,-2.15396 1.23648,0.0908 1.23647,0.0908 0.0807,6.70213 0.0807,6.70213 -1.50574,0 -1.50573,0 0,-1.77394 c 0,-2.68523 -0.42354,-3.05239 -3.91663,-3.39528 -1.55836,-0.15297 -3.81212,-0.19308 -5.00837,-0.0892 l -2.175,0.18902 0,5.50058 c 0,3.02533 0.0892,6.76223 0.1982,8.30423 l 0.1982,2.80363 6.1768,-0.20221 c 6.31395,-0.20669 8.33966,-0.4665 8.74267,-1.12123 0.12545,-0.2038 0.45995,-1.56911 0.74333,-3.03397 l 0.51523,-2.66341 1.34401,0 1.344,0 -0.21951,2.48506 c -0.12073,1.36678 -0.30353,3.77277 -0.40622,5.34664 l -0.18671,2.86159 -14.94846,0 c -8.22165,0 -15.00539,-0.0564 -15.07499,-0.12552 z m 43.764091,-0.22233 c -0.0731,-0.1913 -0.0897,-0.80127 -0.0368,-1.35549 l 0.0961,-1.00764 2.090889,-0.23182 c 1.14998,-0.1275 2.22666,-0.36815 2.39262,-0.53478 0.56231,-0.56458 0.72376,-4.91807 0.74516,-20.09285 l 0.0213,-15.13628 -4.275009,0.003 c -5.29299,0.004 -6.48741,0.18164 -6.85799,1.01935 -0.15427,0.34872 -0.3787,1.65066 -0.49874,2.89319 l -0.21826,2.25915 -1.277741,0.0928 c -0.85478,0.062 -1.31963,-0.0377 -1.40427,-0.30122 -0.0696,-0.21668 -0.17932,-2.56276 -0.24385,-5.21349 l -0.11735,-4.81951 19.25484,0 19.25483,0 -0.13069,4.81951 c -0.0719,2.65073 -0.18684,4.99681 -0.25548,5.2135 -0.0835,0.26373 -0.54717,0.36331 -1.40254,0.30122 l -1.27775,-0.0928 -0.16103,-2.48538 c -0.23272,-3.5916 -0.10667,-3.51834 -6.25163,-3.63356 l -5.0428,-0.0946 -0.19605,3.8598 c -0.2548,5.01636 -0.21567,20.35355 0.0669,26.23294 0.16751,3.48505 0.33152,4.71203 0.6761,5.05802 0.25085,0.25184 1.31929,0.55249 2.38171,0.67012 l 1.92677,0.21335 0,1.31895 0,1.31898 -9.5632,0.0365 c -6.9828,0.0268 -9.599089,-0.0573 -9.696149,-0.31131 z m 34.235909,0.22233 c -0.0696,-0.069 -0.12656,-0.41568 -0.12656,-0.77037 0,-0.42014 0.46188,-0.97173 1.32548,-1.58294 1.21215,-0.85787 1.34222,-1.07529 1.52124,-2.54304 0.10767,-0.88273 0.15245,-8.72127 0.0995,-17.41898 -0.0728,-11.97043 -0.18759,-15.97434 -0.47212,-16.47362 -0.30828,-0.54096 -0.75339,-0.69694 -2.475,-0.86727 l -2.09912,-0.20768 6e-4,-1.39188 3e-4,-1.39187 15.74955,-0.0101 15.74955,-0.0101 0,0.7296 c 0,0.95779 -0.61301,7.52662 -0.78578,8.42021 -0.11587,0.59928 -0.28844,0.68249 -1.24933,0.60244 l -1.11489,-0.0929 -0.3,-2.32419 c -0.165,-1.27831 -0.44937,-2.472 -0.63193,-2.65267 -0.77921,-0.7711 -12.21158,-1.20355 -12.92498,-0.48892 -0.1337,0.13394 -0.28575,3.49468 -0.33789,7.46833 l -0.0948,7.22481 5.10558,-0.0954 c 2.86796,-0.0536 5.23665,-0.2274 5.40463,-0.3966 0.16448,-0.16567 0.40712,-1.18229 0.53921,-2.25915 l 0.24017,-1.95792 1.275,-0.0926 1.275,-0.0927 0,6.79475 0,6.79476 -1.31543,0 -1.31543,0 -0.2024,-1.73201 c -0.29287,-2.50636 -0.39405,-2.7179 -1.45607,-3.04435 -1.46279,-0.44965 -5.63265,-0.70708 -7.68212,-0.47426 l -1.82855,0.20771 0,8.29253 0,8.29251 6.225,-0.20371 c 6.00271,-0.19646 8.25583,-0.45517 8.81009,-1.01171 0.14395,-0.14452 0.5049,-1.47667 0.80209,-2.96029 l 0.54036,-2.69751 1.33623,0 c 1.16172,0 1.32624,0.0787 1.25976,0.60244 -0.0421,0.33134 -0.17706,2.70344 -0.3,5.27134 l -0.22353,4.6689 -15.09844,0 c -8.30414,0 -15.15539,-0.0564 -15.225,-0.12552 z m 34.97346,-1.26172 -2e-5,-1.38723 2.025,-0.18956 c 1.33851,-0.12528 2.14427,-0.353 2.37681,-0.67172 0.62604,-0.85802 0.74639,-4.52745 0.6464,-19.70876 -0.074,-11.24283 -0.19067,-15.07261 -0.47409,-15.56996 -0.30869,-0.54169 -0.75371,-0.69697 -2.48979,-0.86874 l -2.11392,-0.20914 0.0898,-1.32668 0.0898,-1.32669 13.05,-0.0374 c 12.57307,-0.0359 13.12172,-0.0138 15.01255,0.60675 2.47128,0.81105 4.18806,2.2648 5.11989,4.33545 1.01134,2.24733 1.01078,7.07794 -0.001,9.66255 -1.79807,4.59282 -7.29193,8.0472 -12.79819,8.0472 -3.35264,0 -3.88862,-0.18254 -4.49401,-1.5305 -0.72201,-1.60763 -0.299,-2.1373 1.3677,-1.71253 1.51312,0.38563 3.65287,-0.1183 5.0545,-1.19039 1.55256,-1.18752 2.53289,-3.63349 2.56354,-6.39611 0.0139,-1.25044 -0.16738,-2.93999 -0.40278,-3.75455 -0.54815,-1.89679 -2.42385,-3.90497 -4.072,-4.35959 -1.33033,-0.36697 -4.06,-0.4378 -5.52603,-0.14339 l -0.95103,0.19098 0.0885,17.41982 c 0.0763,15.0046 0.15092,17.48159 0.53853,17.86534 0.25747,0.2549 1.41266,0.54937 2.7,0.68829 l 2.25,0.24275 0,1.32444 0,1.32443 -9.82498,0.031 -9.82498,0.031 -2e-5,-1.38724 z m 37.49997,0 1e-5,-1.38723 2.025,-0.18956 c 1.32614,-0.12413 2.14492,-0.35387 2.37247,-0.66576 0.59483,-0.81525 0.7631,-6.10439 0.65594,-20.61838 -0.0776,-10.51001 -0.19725,-14.17137 -0.47929,-14.6663 -0.30828,-0.54096 -0.75339,-0.69694 -2.475,-0.86727 l -2.09912,-0.20768 2.9e-4,-1.39188 3e-4,-1.39187 16.28438,-0.0105 16.28438,-0.0106 -0.1033,4.8301 c -0.0568,2.65655 -0.15817,4.99953 -0.22525,5.20662 -0.073,0.22532 -0.65001,0.37652 -1.43692,0.37652 l -1.31495,0 -0.1808,-2.35405 c -0.20985,-2.73234 -0.54549,-3.79191 -1.31015,-4.13594 -0.30139,-0.13561 -3.55591,-0.30278 -7.23228,-0.37149 l -6.68429,-0.12492 0.0843,17.63993 c 0.0745,15.58941 0.13931,17.69517 0.55753,18.11492 0.27083,0.27182 1.29727,0.56621 2.4,0.68832 l 1.92677,0.21335 0,1.33618 0,1.33615 -9.52501,0.0193 -9.525,0.0193 0,-1.38724 z m 104.70001,-0.01 c 0,-1.37841 0.0153,-1.39998 1.125,-1.59649 2.09859,-0.37162 2.98386,-0.7829 3.33081,-1.54743 0.45552,-1.00387 0.4386,-2.23505 -0.0308,-2.24101 -0.20625,-0.003 -1.96257,-0.13684 -3.90291,-0.2983 -6.86994,-0.57156 -10.55073,-1.88666 -13.46219,-4.80981 -3.05425,-3.06654 -4.30484,-6.61669 -4.08793,-11.60481 0.23277,-5.35303 2.27485,-8.69306 6.63063,-10.84504 2.88381,-1.42477 5.49285,-1.94906 10.7724,-2.16474 4.33188,-0.17698 4.425,-0.195 4.425,-0.8567 0,-1.2185 -0.91593,-1.94838 -2.925,-2.33086 l -1.875,-0.35696 0,-1.36188 0,-1.36187 9.6,0 9.6,0 0,1.37763 0,1.37762 -1.85661,0.34668 c -2.06202,0.38504 -2.52798,0.7151 -2.91315,2.06356 l -0.26274,0.91985 4.09125,0.17645 c 7.12332,0.30724 11.79672,1.76038 14.54898,4.52381 3.66057,3.67547 4.54074,9.90649 2.26479,16.03306 -0.88257,2.37568 -3.79968,5.32899 -6.59262,6.67439 -2.88915,1.39172 -5.01888,1.87235 -9.87768,2.22914 -2.39127,0.17561 -4.3914,0.36309 -4.44471,0.41662 -0.21072,0.21155 0.57207,2.51877 0.96588,2.84695 0.23049,0.19205 1.24203,0.50288 2.24784,0.69069 l 1.82877,0.34146 0,1.37763 0,1.37763 -9.6,0 -9.6,0 0,-1.39727 z m 5.20374,-10.87743 c 0.25146,-3.24356 0.2511,-15.32229 0,-18.88243 l -0.19686,-2.78444 -2.42814,0.21344 c -3.47103,0.3051 -5.84472,1.11162 -7.22067,2.45337 -4.44837,4.33777 -3.96675,15.29136 0.83928,19.08715 1.68882,1.33383 4.6995,2.23556 7.88376,2.36126 l 0.93054,0.0367 0.19266,-2.48506 z m 15.00105,1.7009 c 0.76545,-0.26188 2.07498,-1.09294 2.91006,-1.84681 2.56563,-2.3161 3.65952,-5.30893 3.6393,-9.95691 -0.0198,-4.53757 -0.83835,-6.87818 -3.15579,-9.023 -1.5708,-1.45378 -3.3342,-2.04229 -6.97887,-2.32905 l -2.43051,-0.19123 -0.19449,1.8683 c -0.25065,2.40768 -0.24651,20.68149 0.005,21.62464 0.18642,0.69934 0.24894,0.71242 2.50242,0.52373 1.27119,-0.10645 2.93751,-0.40779 3.70299,-0.66967 z M 0,260.84587 l 0,-1.5061 40.8,0 40.8,0 0,-1.06486 c 0,-0.58568 0.19302,-1.36509 0.42893,-1.73202 0.62305,-0.96908 2.47957,-6.96736 2.86353,-9.2519 0.73773,-4.38945 3.5524,-8.23091 7.432611,-10.14404 1.55313,-0.76577 2.00877,-0.84632 4.57492,-0.80881 1.56749,0.0229 3.659999,0.0907 4.649999,0.15061 1.70943,0.10346 1.89812,0.0423 3.75,-1.21554 4.05718,-2.75571 9.56393,-9.18544 11.14491,-13.01287 0.59509,-1.44065 0.6859,-2.27547 0.7918,-7.27921 0.13075,-6.17744 -0.2891,-11.24572 -1.6278,-19.65051 -0.94798,-5.95171 -0.86042,-9.87407 0.32116,-14.387 0.92976,-3.55111 0.94078,-3.98171 0.15319,-5.98797 -0.9653,-2.45895 -1.48772,-5.13177 -1.77853,-9.09938 -0.38754,-5.2874 -1.17056,-7.93585 -5.25452,-17.77255 -0.66914,-1.61172 -1.51219,-4.59043 -2.13133,-7.53049 -0.56335,-2.67524 -1.555,-7.1684 -2.20365,-9.9848 -1.61156,-6.99726 -1.78968,-8.13099 -2.25015,-14.32203 -0.38962,-5.23834 -0.43074,-5.44732 -1.40382,-7.13415 -0.93266,-1.61678 -1.00274,-1.92642 -1.00685,-4.4487 -0.004,-2.50874 0.0771,-2.87951 1.08839,-4.970119 0.9423,-1.94802 1.11522,-2.642919 1.25555,-5.045817 l 0.16274,-2.786662 -4.014939,-2.723778 c -4.19118,-2.84336 -5.43293,-4.007333 -5.7142,-5.35628 -0.0923,-0.442823 -0.63452,-2.431725 -1.204861,-4.419774 -1.1619,-4.050057 -1.34689,-6.996476 -0.57686,-9.187848 0.40031,-1.139192 0.40031,-1.450071 0,-2.80352 -0.5751,-1.944443 -0.56889,-3.426494 0.024,-5.723704 0.30311,-1.174475 0.41382,-2.439968 0.30687,-3.50751 -0.43796,-4.371208 -0.52993,-9.019246 -0.20914,-10.56908 0.984721,-4.757531 3.561881,-7.41979 8.578071,-8.861316 2.075219,-0.596364 15.653499,-6.637994 16.397379,-7.295968 0.27354,-0.24196 1.39869,-2.471406 2.50033,-4.954308 l 2.00297,-4.514387 -0.0353,-4.879425 c -0.0339,-4.689766 0.001,-4.995835 0.91087,-7.8739165 0.94364,-2.9865318 0.95361,-3.0020348 3.75307,-5.8358069 l 2.80692,-2.8413239 2.13512,0.211246 c 1.78398,0.176504 2.22745,0.127345 2.6966,-0.298951 0.46446,-0.422038 1.01685,-0.487544 3.19676,-0.379084 1.48336,0.0738 2.96313,0.317836 3.38529,0.55826 0.4125,0.234921 1.27385,0.452431 1.91411,0.483347 0.93256,0.04508 1.43978,0.323971 2.55,1.4022669 0.97029,0.942385 1.74264,1.4093761 2.57552,1.5572241 1.70243,0.302214 2.78234,0.941602 3.30529,1.956993 0.53574,1.040212 0.59608,3.8351168 0.11743,5.4392013 -0.29596,0.991846 -0.25413,1.280755 0.33878,2.339983 l 0.67643,1.208432 -0.9743,1.709812 c -0.85054,1.492633 -0.95049,1.889982 -0.78691,3.128145 0.1778,1.345809 0.0948,1.569243 -1.62298,4.36948 -0.9957,1.623131 -2.2221,3.770114 -2.72534,4.771076 -0.50324,1.000963 -1.48425,2.446646 -2.18003,3.212627 -0.69578,0.765971 -1.41545,1.744814 -1.59929,2.175196 l -0.33424,0.782508 4.39777,0.195542 c 5.46294,0.242893 8.70502,0.734584 15.13859,2.295895 3.29467,0.799557 5.7368,1.580951 7.05,2.255753 2.20043,1.130717 3.91502,2.412406 3.62319,2.708405 -0.10229,0.10375 -1.18229,-0.142939 -2.4,-0.54819 -2.92343,-0.972898 -9.04471,-1.598592 -11.5183,-1.177336 -0.98765,0.168191 -2.28414,0.243335 -2.88109,0.166986 -1.27576,-0.163161 -2.74222,0.501832 -3.42964,1.555236 -0.54221,0.830884 -2.43348,1.675986 -3.75071,1.675986 -1.1453,0 -2.92053,-0.73851 -3.82418,-1.590891 -0.56305,-0.53111 -1.1441,-0.680585 -3.00409,-0.772779 -2.24857,-0.111461 -2.3412,-0.147226 -3.71817,-1.435682 -1.23178,-1.152617 -1.58347,-1.32138 -2.75357,-1.32138 -1.57352,0 -2.03483,0.378302 -2.74813,2.253644 -0.28472,0.748551 -0.63432,1.36099 -0.77691,1.36099 -0.50754,0 -0.38733,-2.571922 0.19807,-4.237887 0.32766,-0.932455 0.33033,-1.121862 0.0141,-1.000019 -0.67476,0.259983 -1.0714,1.582889 -1.0714,3.573438 0,1.843493 0.0444,1.958599 1.0901,2.824033 l 1.09009,0.902202 -0.65134,0.831417 -0.65135,0.831416 0.83625,0.669912 0.83625,0.669922 -0.75,0.308519 c -0.4125,0.169687 -1.11228,0.386003 -1.55508,0.480696 -1.80032,0.385019 -2.32147,2.172636 -2.80868,9.634014 l -0.21472,3.288273 -2.05144,2.080302 -2.05144,2.080313 -3.63684,-0.473758 c -2.00027,-0.260575 -4.01356,-0.473768 -4.47398,-0.473768 -0.82692,0 -0.83268,0.01295 -0.47284,1.063947 0.52329,1.528339 0.76281,1.682252 2.05873,1.322976 1.33006,-0.368743 3.56681,-0.258978 3.71084,0.182099 0.14859,0.455022 -1.42291,1.29449 -2.8532,1.52414 -1.40985,0.226357 -1.38538,-0.08133 -0.3176,3.992524 0.66368,2.532162 1.10994,3.491707 2.26473,4.869685 l 0.82028,0.978803 0.70841,-2.07227 c 0.38962,-1.139744 0.78506,-3.024123 0.87875,-4.187493 0.15956,-1.981352 0.11908,-2.176401 -0.63955,-3.081646 l -0.80989,-0.966403 1.70909,-0.758912 c 1.82526,-0.810503 2.68601,-0.942507 2.98442,-0.457694 0.36369,0.590843 0.75056,0.280095 1.5,-1.204878 0.83194,-1.648414 1.13823,-1.752315 3.2619,-1.10643 l 1.16189,0.353381 -1.49625,1.355488 c -0.82294,0.745519 -2.05538,1.804386 -2.73876,2.353037 -2.02542,1.626094 -2.22244,2.269769 -2.36843,7.737817 -0.0708,2.650732 -0.26708,4.988948 -0.43625,5.196037 -0.66335,0.812078 -2.12256,0.381685 -5.39473,-1.591172 -5.3713,-3.238481 -7.3871,-4.600686 -7.71304,-5.212182 -0.22113,-0.41487 -0.17502,-1.211083 0.16215,-2.799635 0.55161,-2.598962 0.4299,-6.172259 -0.35585,-10.446594 -0.41644,-2.265382 -0.67522,-2.965035 -1.34563,-3.63817 -0.84156,-0.844981 -4.18722,-2.141821 -5.52559,-2.141821 -1.13787,0 -1.18355,-0.509182 -0.18577,-2.070422 0.5084,-0.795491 0.92436,-1.678426 0.92436,-1.962064 0,-0.927545 0.83663,-2.168419 2.2411,-3.323947 1.25721,-1.034378 3.14922,-3.77169 3.15609,-4.566147 0.002,-0.179095 -0.34691,-0.513549 -0.77436,-0.743239 l -0.77717,-0.417621 0.65454,-0.532174 c 0.64206,-0.522014 0.69409,-0.499502 2.72718,1.179847 1.13994,0.941612 2.07262,1.795429 2.07262,1.897371 0,0.101943 -0.4883,0.419157 -1.08512,0.704914 -1.01582,0.486379 -1.06968,0.581324 -0.84338,1.486579 0.33897,1.355989 0.31354,3.234525 -0.0869,6.421508 -0.45604,3.629213 -0.1961,7.266207 0.54788,7.665996 0.35343,0.189919 1.57215,0.182308 3.4807,-0.02179 1.61527,-0.172689 3.66372,-0.389939 4.5521,-0.482775 2.41064,-0.25192 2.76549,-0.758671 3.88667,-5.550491 1.26554,-5.408788 1.39315,-6.558162 0.93914,-8.458405 l -0.38261,-1.601363 0.89726,-0.725357 0.89726,-0.725346 -0.68898,-3.350063 c -0.37894,-1.84253 -0.69621,-4.027797 -0.70504,-4.856151 -0.009,-0.828354 -0.20978,-2.236876 -0.44653,-3.130052 -0.49951,-1.884409 -0.36043,-2.923315 0.66807,-4.990555 0.48964,-0.984144 0.62644,-1.532836 0.40099,-1.608291 -1.00392,-0.336 -1.69123,-2.268986 -2.29121,-6.443818 -0.18076,-1.257722 -0.11872,-1.497654 0.5647,-2.183842 0.72601,-0.728961 2.55054,-1.128449 2.14503,-0.469661 -0.10197,0.16567 -0.37683,0.301219 -0.61079,0.301219 -0.23396,0 -0.65127,0.346162 -0.92737,0.769244 -0.44825,0.686911 -0.46053,1.001284 -0.11465,2.936891 0.4689,2.624124 0.96534,3.523133 1.9455,3.523133 0.69273,0 0.72655,0.08585 0.68214,1.732013 -0.0378,1.401102 0.12087,2.040692 0.83048,3.347693 1.03221,1.901157 4.12893,4.857325 6.08348,5.807352 1.53809,0.747606 4.21302,1.086087 5.01626,0.634749 0.43857,-0.246437 0.30939,-0.362839 -0.79039,-0.712163 -1.10227,-0.350107 -1.33048,-0.556473 -1.4126,-1.277361 l -0.0979,-0.859791 1.56131,0.215613 c 1.11551,0.154043 1.50247,0.120016 1.35524,-0.119173 -0.11334,-0.184135 -0.63685,-0.344314 -1.16336,-0.355961 -0.52652,-0.01165 -1.2001,-0.117385 -1.49685,-0.234981 -0.49186,-0.194909 -0.47106,-0.278418 0.23523,-0.944645 0.68202,-0.643334 0.88132,-0.690465 1.66456,-0.393623 0.78013,0.295667 0.88976,0.270756 0.88976,-0.202179 0,-0.626687 0.50606,-1.105345 1.331,-1.258937 0.44211,-0.08233 0.7094,-0.612098 1.11815,-2.216253 0.69674,-2.73441 0.70826,-4.248851 0.0352,-4.627053 -0.70022,-0.393452 -2.1853,0.668818 -2.18163,1.560518 10e-4,0.375139 -0.40741,0.995681 -0.95281,1.445794 -0.90496,0.746843 -0.93531,0.837561 -0.57353,1.714511 0.26168,0.634318 0.65625,0.986434 1.25281,1.117996 1.13696,0.250725 1.10803,0.623675 -0.0667,0.85957 -1.71416,0.344224 -3.39047,0.191877 -4.12445,-0.374847 -0.69241,-0.534635 -0.69768,-0.571594 -0.19183,-1.346753 0.51287,-0.785921 0.50712,-0.808483 -0.41305,-1.619195 -0.52609,-0.463517 -0.93317,-1.118388 -0.93317,-1.501198 0,-0.868285 1.25935,-1.722534 2.19267,-1.487331 0.68948,0.173753 2.00733,-0.485867 2.00733,-1.004728 0,-0.142387 -1.08,-0.493177 -2.4,-0.779536 -1.32,-0.286369 -2.4,-0.611496 -2.4,-0.722515 0,-0.11103 0.47708,-0.430292 1.06018,-0.709483 1.42959,-0.684491 3.68226,-0.640101 5.41758,0.106773 2.45555,1.056848 2.96525,0.19521 1.06869,-1.806584 -0.63445,-0.669662 -1.43679,-1.21756 -1.78299,-1.21756 -0.6923,0 -1.56346,-1.039117 -1.56346,-1.86489 0,-0.845593 -0.86893,-0.29897 -1.34559,0.846477 -0.23278,0.559385 -0.76078,1.171483 -1.17334,1.360227 -0.41256,0.188734 -0.79082,0.627541 -0.84059,0.975108 -0.1323,0.924071 -2.38902,2.099811 -3.54224,1.845491 -0.60012,-0.132345 -0.89824,-0.381755 -0.89824,-0.751492 0,-0.403042 -0.44831,-0.703448 -1.65,-1.105636 -0.9075,-0.30373 -1.68375,-0.677694 -1.725,-0.831015 -0.0412,-0.153331 0.579,-0.548269 1.37832,-0.877633 1.38905,-0.572377 1.51508,-0.576634 2.85,-0.09629 0.76818,0.276429 1.48509,0.501922 1.59313,0.501109 0.10806,-8.13e-4 0.12409,-0.543229 0.0356,-1.20535 -0.1263,-0.945488 -0.009,-1.426184 0.5461,-2.239738 0.53056,-0.777447 0.80234,-0.956372 1.08937,-0.717183 0.47977,0.399788 0.49309,1.218212 0.0275,1.685755 -0.80449,0.80776 0.10009,0.660172 1.16011,-0.189267 0.80786,-0.647381 1.62223,-0.979887 2.76641,-1.129513 l 1.62153,-0.212058 -0.17767,1.09927 c -0.22201,1.373702 0.0909,1.392187 1.09913,0.06496 0.6501,-0.855784 0.73521,-1.167767 0.49303,-1.807317 -0.34348,-0.907111 -1.59346,-1.060884 -2.43175,-0.29916 -0.47855,0.43484 -0.53816,0.420994 -0.72443,-0.168271 -0.19344,-0.611978 -0.23814,-0.618966 -0.95254,-0.148973 -0.70056,0.460896 -0.78924,0.45712 -1.35657,-0.05763 -0.33386,-0.302926 -0.88717,-0.945437 -1.22959,-1.42781 l -0.62258,-0.8770405 0.95496,0.1917665 c 0.80572,0.161794 0.95495,0.102153 0.95495,-0.3816255 0,-0.315367 0.2025,-0.776715 0.45,-1.025221 0.62089,-0.623414 0.56297,-0.872683 -0.15,-0.645473 -0.52366,0.166876 -0.6,0.05412 -0.6,-0.8862278 0,-0.915567 -0.17856,-1.201434 -1.18861,-1.902914 -1.36364,-0.947044 -1.49927,-1.277321 -0.52456,-1.277321 0.54764,0 0.68443,-0.1633821 0.675,-0.8062251 -0.009,-0.599075 0.24193,-0.956371 0.97585,-1.3906499 0.90222,-0.533861 1.03291,-0.543329 1.51034,-0.109503 0.47779,0.4341479 0.55222,0.4273999 0.86694,-0.07862 0.31143,-0.500717 0.21448,-0.56819 -1.01652,-0.707514 -0.89005,-0.100728 -1.88529,0.03143 -2.87693,0.382096 -1.0708,0.378623 -2.01972,0.490245 -3.23062,0.379999 -1.48817,-0.135489 -1.80203,-0.06818 -2.37768,0.5098039 -0.83617,0.839559 -0.57396,1.157747 0.41688,0.505888 2.06335,-1.3574559 2.73974,0.148531 0.7249,1.6140151 -1.46988,1.069098 -1.99126,1.130998 -2.30704,0.273878 -0.2295,-0.622902 -0.24616,-0.620311 -1.20111,0.186495 -0.53262,0.449982 -1.14959,1.174767 -1.37106,1.610621 -0.39647,0.780289 -2.57578,6.7388423 -2.57578,7.0425823 0,0.08575 0.29013,0.232029 0.64472,0.325136 0.45648,0.119855 0.81458,-0.04749 1.22649,-0.573331 0.68843,-0.878747 2.04482,-1.634225 2.93411,-1.634225 0.69407,0 0.64606,0.512103 -0.20558,2.192686 -0.48636,0.959756 -0.318,1.421947 0.51797,1.421947 0.62469,0 0.71539,0.226778 0.33277,0.831958 -0.31346,0.495807 -2.08609,-0.05261 -2.79856,-0.865875 -0.62766,-0.716411 -1.22054,-0.722064 -1.85542,-0.01767 -0.39611,0.439479 -0.4965,1.194918 -0.4965,3.736317 0,3.076565 -0.0402,3.271404 -1.17525,5.699454 -0.6464,1.382698 -1.62515,3.593238 -2.175,4.912328 -0.70723,1.696589 -1.26691,2.577937 -1.91282,3.012196 -0.50219,0.337616 -5.26369,2.43313 -10.58111,4.656682 -11.005859,4.602243 -11.552819,4.946477 -12.789979,8.049429 -1.292021,3.24053 -1.579371,6.102708 -0.96811,9.643121 0.63631,3.685491 0.63939,5.401187 0.013,7.246478 -0.592961,1.746933 -0.619301,3.100714 -0.0999,5.135512 0.32396,1.269148 0.32353,1.906318 -0.002,3.64092 -0.495371,2.636042 -0.276201,4.029635 0.89023,5.660457 1.24368,1.73884 1.80136,3.456554 1.80136,5.548363 l 0,1.750507 0.99078,-0.161433 c 0.85501,-0.139314 1.21226,0.02842 2.60706,1.223814 l 1.61629,1.385245 3.392939,0 c 1.86605,0 3.39287,0.110196 3.39287,0.244871 0,0.731562 -1.9191,1.996844 -3.52254,2.322432 l -1.72746,0.350781 2.18655,1.110947 c 5.94237,3.019234 11.97274,4.039575 17.72994,2.999906 l 1.0165,-0.183563 -2.0665,-0.987036 -2.06649,-0.987047 3.15,-0.02129 c 1.7325,-0.01175 3.33344,0.09539 3.55764,0.238054 0.29573,0.188142 0.3505,0.598935 0.19951,1.496288 -0.25017,1.486739 -0.26428,1.478245 4.34285,2.612758 5.0884,1.253023 10.74466,2.818376 13.74422,3.803676 2.8465,0.935009 3.57898,1.023939 6.87268,0.83443 1.70968,-0.0984 1.94103,-0.0362 2.7471,0.739279 l 0.8802,0.84672 1.64206,-0.4793 c 1.06941,-0.31215 1.81033,-0.73715 2.12457,-1.218679 0.5369,-0.82275 0.52584,-0.8359 -1.16083,-1.38006 -0.66,-0.21293 -2.955,-1.299209 -5.1,-2.413942 -2.21688,-1.152105 -4.64445,-2.181281 -5.625,-2.384745 -0.94875,-0.196867 -1.725,-0.473356 -1.725,-0.614438 0,-0.141081 0.47354,-0.413423 1.05231,-0.60521 1.6331,-0.541161 2.18281,-1.907613 0.89769,-2.231464 -0.8855,-0.223164 -1.00523,-0.779978 -0.1677,-0.779978 1.78514,0 0.19873,-2.196221 -1.61504,-2.235862 -1.37024,-0.02992 -1.3794,-0.624006 -0.0172,-1.118559 1.38377,-0.502414 1.48633,-1.622213 0.17506,-1.911384 -1.0197,-0.22488 -1.27805,-0.718479 -1.0294,-1.966752 0.15573,-0.781836 0.0923,-0.900366 -0.482,-0.900366 -0.56909,0 -0.63546,-0.118269 -0.47584,-0.847953 0.15303,-0.699622 -0.0258,-1.088948 -1.0222,-2.22554 l -1.20769,-1.377587 1.34603,-0.202671 c 1.18268,-0.178071 1.34604,-0.294221 1.34604,-0.957065 0,-1.146963 -0.5415,-1.925867 -1.6672,-2.398129 -0.93734,-0.393232 -0.99206,-0.48663 -0.68354,-1.166522 0.29372,-0.647261 0.21655,-0.874953 -0.6213,-1.833092 -0.8664,-0.990781 -0.93795,-1.219507 -0.75811,-2.423632 0.19445,-1.301971 0.17679,-1.33873 -0.84981,-1.769414 -0.57661,-0.241909 -2.75201,-0.868205 -4.83421,-1.391764 -2.08221,-0.52357 -3.78584,-1.077623 -3.78584,-1.231245 0,-0.44206 1.97027,-1.151653 3.21537,-1.158008 0.62405,-0.003 2.89904,0.294663 5.05555,0.661889 l 3.92091,0.667673 1.02909,-0.601495 c 0.78443,-0.458506 1.18979,-1.02763 1.70504,-2.393902 0.37177,-0.985811 1.11427,-2.673463 1.65,-3.750323 l 0.97404,-1.957927 1.875,0.07189 1.875,0.07189 0,-3.614283 0,-3.614292 1.575,1.048685 c 2.61013,1.737896 4.72898,2.346189 8.175,2.346952 2.34986,6.03e-4 3.55234,-0.165701 5.54868,-0.766975 1.40177,-0.422209 2.59381,-0.722324 2.64897,-0.66694 0.36503,0.366514 -1.22983,1.811434 -2.86348,2.594273 -1.06956,0.512525 -1.82979,1.03485 -1.68941,1.160719 0.14038,0.12587 1.26247,0.389527 2.49354,0.585912 2.46851,0.393785 2.75467,0.524193 2.10301,0.95836 -0.26506,0.176605 -1.66937,0.215844 -3.51631,0.0982 -1.69125,-0.107676 -3.075,-0.10373 -3.075,0.009 0,0.655513 2.4881,5.266632 3.20054,5.931474 1.40434,1.310505 5.5911,3.75199 7.07927,4.128243 0.76622,0.193724 3.17136,1.232882 5.34475,2.309229 4.44515,2.201443 5.86355,2.455351 7.31448,1.309411 0.67656,-0.534343 0.86646,-0.573853 1.08586,-0.225914 0.38664,0.613142 0.33972,0.91402 -0.30917,1.982546 l -0.58202,0.958421 1.48314,0.955608 c 0.81573,0.525578 1.48315,1.068838 1.48315,1.207228 0,0.1384 -0.47905,0.293709 -1.06456,0.345127 l -1.06456,0.09348 1.54722,2.201252 c 0.85097,1.210681 1.60027,2.147996 1.6651,2.082892 0.0648,-0.06506 -0.0834,-0.784556 -0.32942,-1.598812 -0.55224,-1.827831 -0.55263,-1.787196 0.0126,-1.316199 0.79244,0.660333 1.00138,1.298708 2.08444,6.368533 0.57733,2.702451 1.4769,6.218864 1.99906,7.814253 l 0.94937,2.900704 0.92537,-0.382288 c 0.81087,-0.334966 1.09244,-0.302033 2.27538,0.266157 1.97318,0.947748 1.78163,1.909813 -0.25075,1.259409 -0.6201,-0.198443 -0.66567,-0.158451 -0.39597,0.347537 0.25831,0.484622 0.0926,0.730036 -1.08687,1.609898 -0.76541,0.570972 -1.825,1.648097 -2.35465,2.393607 -0.52965,0.74552 -1.30977,1.73508 -1.7336,2.199039 -0.63034,0.69001 -0.75764,1.10041 -0.69938,2.25475 l 0.0712,1.4112 -3.9,2.0459 c -3.12234,1.63795 -4.30317,2.44967 -5.92197,4.07086 -1.96855,1.97144 -2.02716,2.07472 -2.21774,3.90758 -0.10767,1.03544 -0.29105,1.88262 -0.40752,1.88262 -0.11646,0 -0.43405,-0.56821 -0.70574,-1.26269 l -0.494,-1.26269 -0.85071,0.81835 c -0.59698,0.57426 -1.38039,0.91008 -2.62652,1.1259 -0.97669,0.16914 -2.207,0.3856 -2.73403,0.48102 -2.05987,0.37292 -3.01539,-0.0975 -6.00289,-2.95508 -1.55968,-1.49186 -4.17911,-3.59622 -5.82096,-4.67634 l -2.98519,-1.96388 -3.1773,-0.094 c -2.43158,-0.0719 -3.29089,-0.208 -3.66128,-0.5799 -0.37187,-0.37338 -0.40792,-0.60674 -0.15562,-1.00742 0.27846,-0.44225 0.70917,-0.50487 2.83477,-0.41218 2.99031,0.13042 4.73461,0.61147 6.15129,1.69641 1.61533,1.23709 7.06239,3.74217 8.59586,3.95321 0.9363,0.12886 1.90758,0.02 3.05554,-0.34259 1.56159,-0.49318 1.72215,-0.49585 2.22709,-0.0371 0.70916,0.6444 1.20021,0.62131 2.29692,-0.10797 0.52995,-0.3524 1.40761,-0.59928 2.13455,-0.60045 1.32505,-0.002 1.60966,-0.17535 4.91545,-2.99171 1.0725,-0.91371 2.01741,-1.71041 2.0998,-1.77044 0.0824,-0.06 -0.31122,-0.52272 -0.87467,-1.02821 -0.95704,-0.8586 -1.05004,-0.88395 -1.41317,-0.38532 -0.26737,0.36713 -0.29869,0.70263 -0.10033,1.07477 0.40585,0.76143 0.36647,0.88185 -0.28836,0.88185 -0.39208,0 -0.68665,0.33439 -0.92003,1.04442 -0.42067,1.27983 -1.88314,2.57021 -2.91299,2.57021 -0.64484,0 -0.70558,-0.0703 -0.39025,-0.45183 0.20541,-0.2485 0.53591,-0.45183 0.73444,-0.45183 0.64031,0 1.57337,-1.30989 2.2503,-3.15914 0.8065,-2.20321 1.08822,-2.56403 2.002,-2.56403 0.47755,0 0.71478,-0.17419 0.71786,-0.52713 0.01,-1.089689 0.51687,-1.409219 2.30314,-1.450489 2.13969,-0.0494 4.52741,-1.175 5.53167,-2.607646 0.38064,-0.543008 1.29008,-1.535777 2.02098,-2.206151 l 1.32891,-1.218865 -1.95626,-4.203087 c -1.07594,-2.311699 -2.25237,-5.280876 -2.61428,-6.598189 -1.62923,-5.930138 -3.3176,-8.332485 -7.08711,-10.084056 -3.32858,-1.546692 -3.41336,-1.597608 -3.58998,-2.15634 -0.0925,-0.292785 -0.63605,-0.809457 -1.20779,-1.148158 -0.57173,-0.338702 -1.00449,-0.764455 -0.96169,-0.946111 0.0428,-0.181665 -0.79969,-0.676971 -1.87219,-1.100696 -1.0725,-0.423726 -3.26786,-1.290445 -4.87858,-1.926048 -1.61073,-0.635603 -3.46705,-1.590108 -4.12515,-2.121138 -0.92209,-0.744012 -1.55782,-0.993331 -2.77142,-1.08685 l -1.57485,-0.121361 -1.10639,1.753298 c -1.59898,2.533929 -1.73835,3.079638 -1.66225,6.509043 0.0642,2.891486 0.0124,3.200969 -0.79299,4.741386 -0.47389,0.906399 -1.77141,3.629474 -2.88337,6.051269 -1.11196,2.421805 -2.42275,4.997227 -2.91287,5.723166 -1.27666,1.890966 -1.32797,2.175237 -0.71538,3.963015 0.30295,0.884109 0.64709,2.179644 0.76476,2.878976 0.18489,1.098788 0.3809,1.357024 1.44295,1.901046 1.17235,0.600521 5.9517,1.751737 7.30716,1.760097 0.49479,0.003 0.68591,-0.233135 0.8352,-1.03215 0.46087,-2.466636 4.67318,-4.025045 4.67318,-1.728919 0,1.049549 0.95154,4.377799 1.7893,6.258518 0.99711,2.23849 2.72869,7.67993 2.54096,7.98491 -0.26879,0.43668 -3.05765,0.3077 -4.2608,-0.19706 -0.6112,-0.25641 -1.41017,-0.74814 -1.7755,-1.09275 -0.36533,-0.3446 -1.51467,-0.85971 -2.5541,-1.14467 l -1.88986,-0.51814 -0.15,-2.38027 c -0.14603,-2.31723 -0.1632,-2.36156 -0.64833,-1.67373 -0.35421,0.50219 -0.67215,0.65114 -1.09931,0.51502 -0.41873,-0.13344 -0.84023,0.0487 -1.39,0.60073 -0.47428,0.47621 -0.97522,0.72051 -1.25577,0.61242 -0.2567,-0.0989 -1.40633,-0.33564 -2.55472,-0.52606 -1.80607,-0.29948 -2.22959,-0.27843 -3.13662,0.15586 -0.66047,0.31623 -1.16436,0.83543 -1.36128,1.40263 -0.19938,0.57427 -0.51942,0.90054 -0.88332,0.90054 -0.31385,0 -0.57065,0.0921 -0.57065,0.20453 0,0.49755 0.74361,2.20522 0.96027,2.20522 0.31001,0 0.3016,0.94184 -0.0128,1.43938 -0.19568,0.30961 -0.8269,0.31545 -3.2204,0.0297 -1.63736,-0.19545 -3.14577,-0.487 -3.35202,-0.6479 -0.20625,-0.1609 -0.375,-0.76667 -0.375,-1.34614 l 0,-1.05359 -1.85655,0.13484 c -1.79471,0.13034 -1.90215,0.18627 -3.225,1.67892 -1.37658,1.55325 -2.45336,2.1745 -3.76897,2.1745 -0.58339,0 -0.72839,0.17622 -0.80547,0.97896 l -0.094,0.97897 -2.175,0.0884 c -1.19625,0.0487 -2.175,0.0107 -2.175,-0.0845 0,-0.3505 4.23993,-7.94518 4.5889,-8.21978 0.19861,-0.15628 0.80109,-0.36785 1.33885,-0.47015 1.11754,-0.21261 2.77225,-1.33866 2.77225,-1.88655 0,-0.20263 -0.41536,-0.71933 -0.92302,-1.14824 -0.68417,-0.578039 -1.26152,-0.779829 -2.23114,-0.779829 l -1.30813,0 0.16633,1.029129 c 0.1452,0.89837 0.0142,1.18808 -1.03083,2.28009 -1.26054,1.31718 -4.88067,7.43801 -5.10924,8.63859 -0.0737,0.38687 -0.31731,0.70341 -0.54145,0.70341 -0.28932,0 -0.35725,-0.2524 -0.2342,-0.87015 l 0.17332,-0.87015 -1.45582,0.15974 -1.45583,0.15973 0.57316,-0.64691 c 0.62697,-0.70766 0.62751,-0.70579 -0.34816,-1.21548 -0.9093,-0.47502 -0.84975,-0.84746 0.17152,-1.07267 l 0.84651,-0.18668 0.38782,-4.93097 c 0.38552,-4.901679 0.33617,-5.587439 -0.40206,-5.587439 -0.71368,0 -1.29196,1.03937 -2.0111,3.614639 -0.59711,2.13825 -0.7109,3.21387 -0.69027,6.5243 l 0.0247,3.96394 -1.0742,0.12592 c -0.5908,0.0693 -1.2241,-0.0246 -1.40733,-0.20858 -0.18322,-0.18396 -1.56781,-0.99285 -3.07686,-1.79751 -2.27175,-1.21135 -2.74375,-1.58532 -2.74375,-2.17397 0,-0.39101 0.0733,-0.71093 0.16281,-0.71093 0.0896,0 0.91004,0.55425 1.82332,1.23166 0.91327,0.67742 1.73484,1.15704 1.82569,1.06582 0.0909,-0.0913 0.0129,-0.77328 -0.17331,-1.51567 -0.60727,-2.42148 -0.25578,-2.71341 0.86222,-0.71611 l 0.71122,1.27058 0.26235,-0.89405 c 0.31319,-1.06733 0.0581,-6.46125 -0.37941,-8.023249 -0.54343,-1.940047 -1.82835,-2.725115 -7.51042,-4.58871 -2.84566,-0.933319 -5.25505,-1.6152 -5.3542,-1.515295 -0.0991,0.0999 -0.18754,1.085013 -0.19644,2.189133 -0.0132,1.636164 -0.22963,2.508312 -1.17019,4.715212 -0.81161,1.904319 -1.19454,3.289649 -1.29059,4.668909 -0.12649,1.81649 -0.054,2.1167 0.98344,4.06969 l 1.12,2.10854 0.37902,5.87378 c 0.30853,4.78129 0.605,6.91024 1.59402,11.44634 1.24842,5.72585 3.88779,17.39622 4.05029,17.90896 0.0501,0.15819 0.44769,-0.85843 0.88346,-2.25915 0.43577,-1.40072 1.22193,-3.2245 1.74704,-4.05286 0.56908,-0.89773 1.24708,-2.662 1.67849,-4.36768 1.28254,-5.07092 4.08378,-10.98263 6.69945,-14.13845 1.60848,-1.94064 8.32711,-6.83108 8.7716,-6.38478 0.46779,0.46969 -0.28138,1.43204 -1.79801,2.30963 -1.7235,0.9973 -3.60923,2.49726 -5.0304,4.00134 -1.04983,1.11107 -2.90162,4.36403 -3.28926,5.77811 -0.11354,0.41418 -1.00648,3.21485 -1.98431,6.22371 -0.97783,3.00886 -1.77788,5.74896 -1.77788,6.08909 0,0.71822 0.82244,1.24208 1.95,1.24208 1.66779,0 1.93195,0.4005 1.74455,2.64491 -0.14995,1.79588 -0.078,2.21951 0.60064,3.53816 0.92923,1.80549 1.29504,3.15474 0.85533,3.15474 -0.17299,0 -0.82888,-0.74392 -1.45752,-1.65315 -0.62865,-0.90922 -1.21472,-1.65474 -1.30239,-1.6567 -0.0877,-0.002 -0.94505,0.7936 -1.90529,1.76791 l -1.74591,1.7715 0.51614,0.79093 c 0.44719,0.68527 0.48767,1.2483 0.30306,4.21498 -0.1772,2.84756 -0.13218,3.58111 0.26739,4.35694 0.43856,0.85153 0.55213,0.90563 1.30223,0.62029 0.45197,-0.17192 1.10302,-0.57706 1.44677,-0.90031 0.34375,-0.32324 0.88375,-0.56383 1.2,-0.53465 1.58976,0.14674 1.94634,-0.0425 2.49315,-1.32256 0.30076,-0.7041 1.07221,-1.7939 1.71434,-2.4218 l 1.16751,-1.1416 0.66633,0.83442 c 0.70979,0.88883 0.83479,1.34012 1.14083,4.11876 0.14295,1.29786 0.28317,1.67731 0.5287,1.43079 0.44737,-0.4492 1.61923,-0.42678 1.92144,0.0367 0.13348,0.20475 0.4452,0.97973 0.6927,1.7222 0.33532,1.00592 0.78717,1.58273 1.77308,2.26341 0.72769,0.50241 3.02269,2.6177 5.1,4.70065 2.88018,2.888 4.23348,4.01441 5.69984,4.74421 1.0576,0.52636 2.22849,0.95703 2.60198,0.95703 0.87872,0 2.5251,1.39223 2.5251,2.13531 0,0.70114 0.0686,0.70182 -2.7,-0.0268 -3.06272,-0.80599 -3.14611,-0.79502 -2.49196,0.3279 1.34774,2.31355 4.84102,4.49534 6.52004,4.07223 0.41475,-0.10453 1.09035,-0.55416 1.50133,-0.99918 0.60435,-0.65441 0.97777,-0.79548 1.95282,-0.73772 1.04673,0.0621 1.38614,-0.0957 2.57583,-1.19675 1.7135,-1.58586 1.74403,-2.47461 0.0898,-2.61287 -0.60619,-0.0507 -1.2566,-0.27897 -1.44536,-0.50733 -0.27668,-0.33474 -0.12888,-0.47462 0.76258,-0.72177 1.51512,-0.42005 2.81271,-1.36835 3.90219,-2.8518 0.50449,-0.68691 1.30366,-1.77837 1.77595,-2.42547 l 0.8587,-1.17653 0.6745,0.84934 0.67451,0.84935 0.93645,-1.48013 c 1.0953,-1.73118 1.07856,-1.66217 1.49112,-6.14902 0.24823,-2.69972 0.45209,-3.63018 0.92395,-4.21708 0.33299,-0.41417 0.83626,-1.20429 1.11838,-1.75583 0.48432,-0.9468 0.4841,-1.05324 -0.004,-1.90703 -0.73889,-1.29267 -0.66148,-1.45787 0.68313,-1.45787 1.09949,0 1.2,0.0672 1.2,0.80189 0,0.96497 1.2884,3.2692 1.97612,3.53418 0.82836,0.31916 0.27016,-1.59174 -1.55682,-5.32945 -1.39427,-2.85247 -1.61889,-3.53952 -1.46201,-4.47189 0.135,-0.80231 0.0155,-1.43601 -0.44,-2.33241 l -0.62536,-1.23079 0.60403,-0.6065 c 0.40262,-0.40424 1.00139,-0.60649 1.7956,-0.60649 1.33864,0 6.92329,-1.1498 7.30697,-1.5044 0.1367,-0.12632 -0.0995,-0.9194 -0.525,-1.76239 -0.42544,-0.84298 -0.77353,-1.67927 -0.77353,-1.8584 0,-0.17914 0.62278,0.10452 1.38395,0.63035 1.06774,0.73761 1.43965,0.86556 1.62773,0.56002 0.19715,-0.3203 0.53932,-0.32755 1.78894,-0.038 1.76347,0.40872 3.59938,0.47097 3.59938,0.12205 0,-0.12984 -0.4808,-0.97702 -1.06844,-1.88262 -0.83786,-1.29122 -1.03615,-1.85782 -0.91886,-2.62551 0.14419,-0.94372 0.11246,-0.97897 -0.88156,-0.97897 -0.83114,0 -1.03114,0.11686 -1.03114,0.60244 0,0.44847 -0.2,0.60244 -0.78252,0.60244 -0.67581,0 -0.75792,0.0984 -0.60213,0.72164 0.12642,0.50579 0.035,0.77765 -0.30551,0.90886 -0.70594,0.272 -1.30984,-0.36594 -1.30984,-1.3837 0,-0.64232 -0.3743,-1.27103 -1.36785,-2.29756 l -1.36785,-1.41326 0.76785,1.57139 c 0.93543,1.91434 0.98107,2.49466 0.17964,2.28423 -0.53661,-0.1409 -0.56292,-0.066 -0.3,0.85456 0.15852,0.55495 0.28821,1.03765 0.28821,1.07266 0,0.035 -0.50625,0.15549 -1.125,0.26775 -0.70356,0.12765 -1.46215,0.56685 -2.025,1.17239 -0.72372,0.77863 -1.35609,1.06999 -3.22869,1.48762 -2.6398,0.58872 -3.39089,0.53633 -3.32644,-0.23201 0.0405,-0.48256 -0.005,-0.48999 -0.46019,-0.0759 -0.27779,0.25241 -1.29551,0.80992 -2.2616,1.23891 -1.93588,0.85962 -3.18933,0.80728 -3.86507,-0.16139 -0.35507,-0.50899 -0.50199,-0.52528 -1.53191,-0.16977 l -1.13918,0.39322 1.53154,0.204 c 0.84235,0.11219 1.53154,0.3117 1.53154,0.44334 0,0.13165 -0.66489,0.55205 -1.47754,0.93422 -0.81265,0.38217 -2.05001,1.28053 -2.7497,1.99636 -0.69968,0.71582 -1.39101,1.22774 -1.53628,1.13758 -0.14527,-0.0902 0.15447,-0.90862 0.66609,-1.81885 0.74815,-1.33103 0.85934,-1.74072 0.56809,-2.09307 -0.29317,-0.3547 -0.20288,-0.60501 0.47419,-1.3146 0.78749,-0.82531 0.82437,-0.98256 0.6316,-2.69336 -0.12755,-1.13192 -0.0803,-2.07492 0.12527,-2.50135 0.24775,-0.51388 0.13949,-0.45925 -0.43437,0.21919 -0.86977,1.02826 -0.96937,1.79811 -0.31735,2.45279 0.60762,0.61009 0.57369,0.78955 -0.30618,1.61951 -0.68428,0.64545 -0.80058,0.6687 -1.22301,0.24456 -0.65331,-0.65598 -0.84723,-2.57454 -0.42169,-4.17202 0.42584,-1.59861 2.73288,-4.05071 3.59747,-3.8237 0.40159,0.10544 0.61223,-0.13301 0.86459,-0.97872 0.45546,-1.52637 1.29508,-2.24659 2.3184,-1.98871 0.79002,0.19909 0.80097,0.18168 0.64064,-1.01857 -0.11951,-0.89466 -0.057,-1.22112 0.23386,-1.22112 0.46282,0 1.64592,1.80566 1.64592,2.51203 0,0.81857 -1.38808,3.68543 -2.11254,4.3631 l -0.68627,0.64196 1.95732,-0.18353 c 2.19283,-0.2056 3.06003,0.27347 1.37718,0.76081 l -0.98569,0.28545 1.30954,0.0272 c 1.14036,0.0237 1.43927,-0.11504 2.31374,-1.07363 0.55231,-0.60543 1.27295,-1.67485 1.60142,-2.37647 0.3493,-0.74613 1.03892,-1.54978 1.66126,-1.93597 0.58522,-0.36317 1.06404,-0.71959 1.06404,-0.79207 0,-0.35207 -1.63245,0.34129 -2.24015,0.95145 -1.24318,1.24824 -5.85985,3.34882 -5.85985,2.66622 0,-0.0978 0.60529,-0.88925 1.34508,-1.75871 1.31594,-1.54658 2.25492,-3.30746 2.25492,-4.22866 0,-0.36481 -0.30898,-0.2882 -1.47589,0.36596 -0.81832,0.45874 -1.58688,0.71138 -1.725,0.56702 -0.13701,-0.14319 0.003,-0.41388 0.31207,-0.60154 1.91851,-1.16647 2.53882,-1.71149 3.38279,-2.97228 l 0.94397,-1.41017 0.18744,1.0032 c 0.15752,0.84307 0.39688,1.0835 1.49959,1.50635 1.00296,0.38459 1.27898,0.63057 1.17134,1.04385 -0.11695,0.44902 0.009,0.51855 0.74533,0.4101 0.83026,-0.12236 0.87677,-0.0765 0.73749,0.72663 -0.0818,0.47147 -0.34502,1.01469 -0.58501,1.20715 -0.36656,0.29397 -0.30103,0.41531 0.40977,0.75875 0.7907,0.38205 0.89207,0.35419 1.54778,-0.42523 0.71526,-0.85022 2.00035,-1.1292 2.21555,-0.48099 0.0645,0.19419 0.30033,-0.0908 0.52414,-0.63333 0.32742,-0.79368 0.33561,-1.18442 0.0419,-1.99986 -0.39805,-1.10525 -0.0246,-2.33176 0.66174,-2.1735 0.20004,0.0461 1.00329,-0.45293 1.785,-1.10902 1.39638,-1.17196 1.40952,-1.19921 0.7494,-1.55394 -0.36955,-0.19857 -0.76387,-0.30399 -0.87626,-0.23424 -0.2482,0.15402 -0.67751,-1.66133 -0.44751,-1.89227 0.0895,-0.0899 0.65141,0.13979 1.24864,0.5104 l 1.08587,0.67383 0.82133,-0.79008 c 0.45173,-0.43455 1.02015,-0.79008 1.26315,-0.79008 0.24301,0 0.75983,-0.22364 1.14849,-0.49697 0.66313,-0.46636 0.69638,-0.63335 0.53989,-2.71098 -0.0917,-1.2177 -0.0485,-2.214 0.096,-2.214 0.65619,0 1.76072,0.73588 2.12207,1.4138 0.35396,0.66408 0.30432,0.92258 -0.4579,2.38432 -0.75714,1.45199 -0.82898,1.81946 -0.62811,3.21306 0.35618,2.47126 0.24008,3.18488 -0.73466,4.5157 -1.12127,1.53089 -1.26895,3.46558 -0.31042,4.06663 0.33,0.20693 0.61027,0.68006 0.62283,1.05142 0.0125,0.37135 0.21633,1.14961 0.45285,1.72946 l 0.43002,1.05427 -0.1243,-1.28019 c -0.0685,-0.70504 0.005,-1.28018 0.16416,-1.28018 0.15865,0 0.0932,-0.27986 -0.14539,-0.62193 -0.59145,-0.84785 -0.30321,-1.78783 0.54823,-1.78783 0.37313,0 0.88487,-0.30498 1.1372,-0.67774 0.44859,-0.66268 0.46372,-0.66436 0.68089,-0.0753 0.12215,0.33135 0.4278,1.07686 0.67922,1.65671 l 0.45713,1.05427 0.23205,-2.25915 c 0.19706,-1.91849 0.15804,-2.31592 -0.25876,-2.63567 -0.73395,-0.56305 -1.57613,-0.46728 -1.57613,0.17923 0,0.66006 -0.78503,1.4031 -1.725,1.63271 -0.73041,0.17843 -0.88433,-0.27668 -0.41044,-1.21358 0.14551,-0.28768 0.41793,-1.17791 0.60537,-1.9783 0.18744,-0.80039 0.89584,-2.27592 1.57423,-3.27895 l 1.23343,-1.82368 -1.10553,0.20824 -1.10552,0.20823 0.20653,-1.14637 c 0.25421,-1.41102 0.30504,-1.47232 0.84681,-1.02086 0.35537,0.29613 0.56389,0.17058 1.1465,-0.69029 0.45685,-0.67505 0.84453,-0.9701 1.08148,-0.82307 0.28226,0.17516 0.22891,0.54334 -0.22631,1.56158 -1.11167,2.48658 0.4287,1.65946 1.65283,-0.88751 0.37323,-0.77654 0.44074,-1.45648 0.2874,-2.89421 l -0.20043,-1.87921 1.43916,-1.27194 c 0.79153,-0.69958 1.81273,-1.49353 2.26932,-1.76434 0.93623,-0.55528 1.00286,-0.86096 0.37063,-1.70025 -0.99096,-1.31549 -0.37711,-2.35494 4.4576,-7.548219 l 1.96296,-2.108532 2.25382,0 c 1.39307,0 2.39615,-0.142657 2.62651,-0.373532 0.20498,-0.205442 0.47534,-1.338128 0.6008,-2.517071 0.22581,-2.12186 0.21916,-2.151099 -0.65702,-2.891355 -1.00022,-0.845052 -1.09697,-1.517725 -0.41013,-2.851334 0.26125,-0.507254 0.475,-1.520988 0.475,-2.252717 0,-1.426937 -0.96033,-3.624353 -1.52705,-3.494186 -0.26047,0.05984 -1.90651,-0.615683 -2.33695,-0.959053 -0.0352,-0.02811 0.13355,-0.710125 0.375,-1.515666 0.5555,-1.853293 0.55553,-2.979834 1e-4,-4.058291 -0.65116,-1.264308 -1.22153,-1.331058 -2.4113,-0.282182 l -1.0498,0.925477 0,-2.403079 c 0,-1.388381 -0.19406,-2.955355 -0.45958,-3.710994 -0.25278,-0.719343 -0.37867,-1.677813 -0.27978,-2.129924 0.16064,-0.734323 0.0416,-0.892724 -1.11541,-1.484711 -2.38851,-1.222047 -6.39762,-4.100481 -8.82863,-6.338722 -2.22885,-2.052119 -5.55011,-4.434122 -5.49125,-3.938325 0.0139,0.117415 1.26268,1.230632 2.775,2.473835 3.69965,3.041313 3.89756,3.480301 3.43651,7.622912 -0.19709,1.77088 -0.46167,3.219776 -0.58796,3.219776 -0.12629,0 -0.57702,-1.186052 -1.00163,-2.635671 -0.42461,-1.449619 -0.95671,-3.055018 -1.18243,-3.567553 -0.44561,-1.011797 -5.41339,-5.195455 -7.4588,-6.281491 -1.30759,-0.694281 -1.62498,-1.312795 -1.67613,-3.266375 -0.0199,-0.758671 -0.63404,-2.330645 -1.82991,-4.683652 -0.99,-1.947936 -1.79692,-3.806169 -1.79317,-4.129398 0.005,-0.442622 0.1177,-0.362156 0.45598,0.32599 1.28404,2.612035 5.74912,7.80269 7.9323,9.221283 0.73981,0.480726 2.42731,1.752636 3.75,2.826463 6.05404,4.915029 8.25197,6.543773 10.20489,7.562166 2.47385,1.290043 3.36567,2.042218 3.88035,3.27275 0.21786,0.520859 1.18058,1.477853 2.27266,2.259146 3.83559,2.74403 3.71967,2.569152 3.92616,5.92291 0.13772,2.236906 0.37707,3.422225 0.97663,4.836611 0.6874,1.621616 0.7942,2.292331 0.7942,4.98785 0,2.033453 0.13015,3.281676 0.375,3.596531 0.20625,0.265224 1.32,1.050844 2.475,1.745828 1.155,0.694984 2.47125,1.613643 2.925,2.041465 0.78924,0.744133 0.82481,0.902725 0.82058,3.658391 -0.005,3.5487 -0.3366,4.351009 -1.84845,4.478379 -0.88802,0.0748 -1.233,0.31011 -1.86867,1.27459 -0.7952,1.20651 -1.80036,1.69103 -2.9059,1.40076 -0.56287,-0.14779 -0.60153,-0.0638 -0.43482,0.9451 0.23447,1.41883 -0.73759,5.27644 -1.98449,7.87542 -0.7707,1.60642 -0.97335,2.48267 -1.15402,4.99011 -0.12053,1.67282 -0.38727,3.37138 -0.59275,3.77457 -0.20548,0.40319 -1.32309,1.63456 -2.48356,2.73639 -1.66558,1.58139 -2.06159,2.12065 -1.88024,2.56037 0.12635,0.30637 0.31975,1.4703 0.42979,2.58652 0.11004,1.11622 0.36375,2.19383 0.5638,2.3947 0.20005,0.20086 0.36373,0.67821 0.36373,1.06077 0,0.77268 -2.34871,6.48613 -3.44443,8.37888 l -0.70199,1.21262 0.72167,1.19714 c 0.39692,0.65842 0.72237,1.56712 0.72321,2.01933 9e-4,0.45221 -0.60669,2.19958 -1.35007,3.88304 -0.82949,1.87845 -1.25108,3.18988 -1.09137,3.39488 1.10617,1.4198 0.50743,3.96973 -1.36,5.79205 -1.21399,1.18466 -1.34314,1.43728 -1.17789,2.30395 0.10208,0.53536 0.26959,1.54948 0.37225,2.25358 l 0.18665,1.28018 -1.38901,0 c -1.05497,0 -1.38902,0.11236 -1.38902,0.46718 0,0.25694 -0.86734,3.13736 -1.92742,6.40092 -1.06008,3.26355 -2.19939,7.01812 -2.53179,8.34349 -0.95603,3.81185 -3.04079,14.42945 -3.04079,15.48658 0,1.42683 0.66735,2.47522 2.70236,4.24534 2.10108,1.8276 2.78431,3.00374 3.4487,5.93671 0.29008,1.28055 0.84709,2.62513 1.43638,3.46726 1.15344,1.64834 6.78172,8.06793 7.06394,8.0571 0.10924,-0.004 1.27713,-0.54639 2.59531,-1.20488 1.36103,-0.67989 2.83189,-1.19726 3.40382,-1.19726 1.06026,0 5.36904,2.17498 6.94274,3.50455 1.31901,1.11438 2.01679,2.92239 2.71629,7.03813 0.66218,3.89616 0.7712,7.61926 0.34649,11.83277 -0.12998,1.28939 -0.17325,2.40767 -0.0962,2.48506 0.22539,0.22631 2.85963,0.1526 3.20994,-0.0898 0.17589,-0.12171 0.76954,-0.89905 1.31922,-1.72741 0.54968,-0.82835 1.74512,-2.2163 2.65652,-3.08432 1.47949,-1.40909 1.66294,-1.71927 1.71168,-2.89403 0.0684,-1.6478 0.2107,-1.87283 1.65118,-2.6107 1.60899,-0.82419 2.10236,-0.75921 3.4621,0.4559 1.00806,0.90082 1.08727,1.05406 0.54496,1.05427 -0.349,1.3e-4 -1.01057,-0.29676 -1.47015,-0.65974 l -0.83561,-0.65995 -1.07985,0.62777 c -0.59392,0.34527 -1.11962,0.87946 -1.16822,1.18709 -0.26382,1.66971 -1.06667,3.13574 -2.05214,3.74727 -0.62991,0.39088 -1.82345,1.81177 -2.98313,3.55134 l -1.93312,2.89974 2.36345,0.15935 c 3.628,0.24462 4.42645,0.88859 8.20575,6.61809 l 1.88756,2.86158 1.2,-0.0904 c 0.9221,-0.0695 1.53054,0.12116 2.62733,0.8232 1.85786,1.1892 2.72791,1.38611 4.10634,0.92933 0.94484,-0.31308 1.49431,-0.29111 3.34833,0.13397 1.2199,0.27968 3.3655,0.50774 4.768,0.5068 4.79146,-0.003 7.26073,-1.3286 10.49882,-5.63533 1.17548,-1.56341 2.36537,-2.85819 2.64421,-2.8773 0.7489,-0.0513 1.04835,-0.12352 1.64723,-0.3971 0.73024,-0.3336 2.00821,0.88144 2.01433,1.91515 0.004,0.61456 0.0659,0.68192 0.29947,0.32401 0.65534,-1.00416 -0.4253,-3.31341 -1.55056,-3.31341 -0.7125,0 -0.69751,-0.32294 0.0761,-1.63949 0.66333,-1.12882 1.17037,-1.38958 1.17037,-0.60188 0,0.25829 0.135,0.38583 0.3,0.28344 0.4953,-0.30736 0.34344,-0.63647 -0.46412,-1.00591 -1.2199,-0.55809 -2.96519,-0.43579 -3.58436,0.25117 -0.61565,0.68306 -2.20593,1.19788 -3.75152,1.21449 -0.5775,0.006 -2.3325,0.41677 -3.9,0.91236 -1.5675,0.4956 -2.34375,0.82401 -1.725,0.72981 0.88372,-0.13456 1.125,-0.0725 1.125,0.28911 0,0.58296 -2.70236,1.97665 -3.83269,1.97665 -0.46895,0 -1.11469,0.19902 -1.43497,0.44225 -0.79,0.59995 -0.88324,0.57775 -1.28418,-0.30581 -0.49645,-1.094 -0.43764,-1.33879 0.32684,-1.3604 l 0.675,-0.0191 -0.70924,-0.28514 c -1.04392,-0.41969 -0.42263,-0.98547 2.15616,-1.9635 1.18419,-0.44912 2.49833,-1.0578 2.92029,-1.35262 3.20848,-2.24167 8.07922,-3.76871 13.31349,-4.17397 1.66061,-0.12857 2.39458,-0.25305 1.63103,-0.27664 -0.76354,-0.0236 -1.53198,-0.21675 -1.70763,-0.42926 -0.17565,-0.2125 -0.926,-1.60187 -1.66744,-3.0875 -1.77172,-3.55 -4.95194,-7.09624 -6.98873,-7.79307 -3.62742,-1.241 -7.7243,0.12529 -8.77884,2.92773 -0.1755,0.46637 -0.31909,1.71106 -0.31909,2.76597 0,2.11622 0.0759,2.03926 -2.39283,2.42643 -1.36176,0.21356 -1.71751,0.49617 -4.13217,3.28258 -0.53625,0.6188 -0.97949,1.28194 -0.98498,1.47363 -0.0154,0.53991 -0.99288,1.59235 -2.11903,2.28169 -1.35896,0.83184 -3.67005,0.8398 -5.01372,0.0173 -0.87307,-0.53446 -0.98155,-0.74082 -0.9,-1.71198 0.0814,-0.96971 0.27552,-1.21158 1.59273,-1.98485 0.825,-0.48432 2.47875,-1.75884 3.675,-2.83226 1.77227,-1.59031 2.175,-2.11677 2.175,-2.84323 0,-1.65791 -1.70495,-3.87382 -2.98057,-3.87382 -0.27481,0 -1.2753,0.69413 -2.22329,1.5425 -0.948,0.84837 -1.77875,1.48716 -1.84612,1.41951 -0.0674,-0.0677 0.62461,-0.96507 1.53771,-1.99432 1.4093,-1.58853 1.81173,-1.87135 2.66286,-1.87135 0.80444,0 1.2131,0.24686 2.06717,1.24871 1.20848,1.41757 1.82038,2.97717 1.56652,3.99273 -0.26862,1.07462 -4.37174,5.16257 -5.6345,5.61368 -0.65483,0.23393 -1.24156,0.70448 -1.44934,1.16238 -0.3045,0.67101 -0.26154,0.84054 0.33611,1.32645 0.57186,0.46494 0.98535,0.52376 2.49933,0.35551 2.37666,-0.26412 3.16412,-0.77412 3.16412,-2.0492 0,-1.09504 0.44809,-1.71001 1.24596,-1.71001 0.33169,0 0.73782,-0.48088 1.09951,-1.30187 0.63165,-1.43375 1.7427,-2.14319 3.89853,-2.48932 1.24291,-0.19956 1.256,-0.21482 1.256,-1.46398 0,-2.18466 0.78247,-4.20714 2.08471,-5.38842 2.0604,-1.86902 4.50794,-2.10059 8.31273,-0.78649 2.77186,0.95736 5.64927,4.06136 7.78487,8.39791 0.94696,1.92291 1.00002,1.97095 2.86625,2.59553 l 1.90144,0.63636 0.0884,1.99634 c 0.0825,1.86195 0.0169,2.10082 -0.97484,3.54833 -0.70359,1.027 -1.51998,3.00114 -2.41343,5.83597 -0.74259,2.35619 -1.35016,4.42292 -1.35016,4.59274 0,0.16981 1.0125,0.48265 2.25,0.69519 l 2.25,0.38645 0,3.42141 0,3.42141 40.95,0 40.95,0 0,1.5061 0,1.50609 -173.4,0 -173.39999,0 0,-1.50609 z m 92.205941,-2.33446 c 0.54471,-2.93726 0.54221,-2.96876 -0.26586,-3.33844 -1.495931,-0.68436 -2.545471,-0.19687 -3.610201,1.67687 -0.5003,0.88044 -1.98488,1.88749 -2.78251,1.88749 -0.17158,0 -0.3954,0.13555 -0.49737,0.30122 -0.11967,0.19442 1.08894,0.30122 3.40846,0.30122 l 3.593861,0 0.15362,-0.82836 z m 1.12063,-6.26733 c 2.58649,-0.48115 4.31178,-0.64706 5.47499,-0.52652 l 1.698429,0.17601 0.0106,-2.22599 c 0.006,-1.35901 0.17762,-2.51927 0.43937,-2.97903 0.23581,-0.41418 0.43353,-1.17799 0.43937,-1.69736 0.008,-0.66767 0.23036,-1.08888 0.76063,-1.43774 0.94019,-0.61854 0.97334,-1.6649 0.12487,-3.94184 -0.89039,-2.38948 -1.42822,-2.65935 -5.000429,-2.50913 -3.50288,0.1473 -5.54743,0.95351 -7.812131,3.08048 -1.9711,1.85124 -2.92513,3.95742 -3.80599,8.40239 -0.40706,2.05407 -0.82988,3.96959 -0.9396,4.25668 -0.1832,0.47934 0.006,0.50495 2.31689,0.31329 1.38402,-0.11479 4.21585,-0.52486 6.292971,-0.91124 z M 86.1,251.35234 c 0,-0.82094 1.40969,-5.4599 2.10375,-6.92294 1.52619,-3.21714 3.925751,-5.44351 5.438781,-5.04623 0.78653,0.20652 0.69262,0.59186 -0.26754,1.09782 -1.27958,0.67429 -2.982601,2.60067 -3.658261,4.13807 -0.33708,0.767 -0.92993,2.5969 -1.31744,4.06646 -0.64746,2.4553 -0.76923,2.67966 -1.50194,2.76725 -0.43854,0.0524 -0.79735,0.007 -0.79735,-0.10043 z m 2.45514,-1.87751 c 0.47749,-3.12903 3.15865,-7.90701 4.437021,-7.90701 0.29636,0 0.7641,0.34521 1.03944,0.76713 0.27534,0.42193 1.25878,1.25411 2.18542,1.84929 1.58404,1.01742 1.65045,1.10736 1.11035,1.5039 -0.46926,0.34452 -0.49804,0.46918 -0.1572,0.68068 0.23471,0.14565 0.33472,0.47489 0.2286,0.75256 -0.11472,0.30016 -0.009,0.56279 0.26922,0.67006 0.40629,0.15654 0.40351,0.23676 -0.0247,0.71184 -0.45339,0.50304 -0.40883,0.54792 0.73705,0.7423 1.46802,0.24904 1.58173,0.69868 0.24463,0.96738 l -0.975,0.19594 0.9,0.38538 c 0.7757,0.33217 0.12938,0.38727 -4.67957,0.39898 l -5.579581,0.0135 0.26431,-1.73201 z m 54.78743,-5.6425 c 0.0509,-0.05 -0.11174,-0.58183 -0.36146,-1.18192 -0.62323,-1.49767 -1.26934,-1.67688 -2.15936,-0.59893 -0.59811,0.7244 -0.76627,0.79542 -0.99442,0.42 -0.15102,-0.24851 -1.1628,-1.71135 -2.2484,-3.25077 -2.27164,-3.22122 -2.51467,-3.8937 -1.87357,-5.18404 0.35874,-0.72204 0.42295,-1.50731 0.28443,-3.47816 -0.18181,-2.58677 -0.0667,-2.89058 0.79752,-2.10527 0.43425,0.3946 0.48342,0.3599 0.47362,-0.33431 -0.007,-0.46572 0.24641,-0.94836 0.63439,-1.21031 0.59309,-0.40042 0.73332,-0.35811 1.73254,0.52278 1.34157,1.1827 3.35687,1.52646 4.50823,0.769 0.41132,-0.27061 1.40792,-1.47399 2.21465,-2.67419 l 1.4668,-2.18217 2.96952,-0.82836 c 3.41799,-0.95345 5.51293,-1.08874 5.51293,-0.35601 0,0.383 0.18416,0.34068 0.97368,-0.22379 0.74125,-0.52997 1.47617,-0.72162 3.07873,-0.80288 l 2.10505,-0.10673 0.80527,-1.44816 0.80526,-1.44817 -0.76632,-0.19312 c -0.61889,-0.15596 -0.73925,-0.33533 -0.6256,-0.93228 0.13892,-0.72967 0.11287,-0.73916 -2.03103,-0.73916 -1.25179,0 -2.62799,-0.1914 -3.24877,-0.45183 -1.68407,-0.70651 -3.3146,-0.54646 -7.84322,0.76987 -5.16398,1.501 -5.61225,1.71879 -7.92275,3.84927 -1.45604,1.34259 -2.03408,2.14997 -2.71076,3.78633 -0.87999,2.128 -1.49541,2.77838 -2.32617,2.45829 -0.3628,-0.13978 -0.43605,-0.48538 -0.32068,-1.51304 0.29342,-2.61384 4.14535,-6.58933 8.45722,-8.72852 3.78334,-1.87699 6.14721,-2.33732 12.85711,-2.50371 l 5.93703,-0.14723 2.01297,0.99049 c 3.09811,1.52443 5.63194,4.24067 7.43275,7.96784 0.80004,1.65586 2.30669,4.33225 3.3481,5.94754 1.56751,2.43131 2.02323,2.93689 2.64722,2.93689 0.45595,0 0.81794,-0.20825 0.91623,-0.52713 0.0894,-0.28992 0.38494,-1.00156 0.65683,-1.5814 0.27189,-0.57985 0.48322,-1.2015 0.46962,-1.38145 -0.0136,-0.17994 -2.00112,-2.99676 -4.41673,-6.25957 -4.4331,-5.9879 -4.86587,-6.94439 -2.61273,-5.77451 0.72948,0.37876 0.9582,0.3999 1.05066,0.0971 0.065,-0.21289 0.26508,-0.84782 0.44461,-1.41097 0.41979,-1.31681 0.4144,-4.03171 -0.0157,-7.92658 -0.1882,-1.70406 -0.37087,-3.13486 -0.40594,-3.17956 -0.0351,-0.0447 -1.73196,0.73068 -3.77088,1.72306 -5.063,2.46423 -7.17141,2.70083 -7.1859,0.80639 -0.004,-0.51736 -0.78441,-1.04249 -4.05,-2.72503 -2.61974,-1.34978 -4.04433,-2.25197 -4.04292,-2.56037 0.002,-0.32244 0.83154,-0.78265 2.57082,-1.42531 2.75114,-1.01653 3.1242,-0.92923 2.54667,0.59595 -0.34778,0.91845 -0.0796,1.00879 1.23165,0.41488 l 0.80132,-0.36294 -0.72188,-2.84044 c -0.85508,-3.36462 -1.19224,-3.78262 -5.22888,-6.48256 -1.56855,-1.04913 -4.67439,-3.4892 -6.90189,-5.42238 -3.82127,-3.31639 -5.78567,-4.69766 -6.15435,-4.32748 -0.41202,0.41369 5.1839,12.26733 7.08429,15.0064 0.63219,0.91119 1.7178,2.46746 2.41245,3.45837 1.21224,1.72923 1.27251,1.92301 1.49905,4.81951 0.12982,1.65982 0.5111,3.81848 0.8473,4.79703 0.33619,0.97854 0.61126,1.93647 0.61126,2.12873 0,0.20603 -2.49453,0.94507 -6.075,1.79981 -6.83889,1.63258 -8.53001,2.30823 -10.71537,4.28104 -1.93163,1.74376 -2.58839,2.88385 -4.6586,8.087 -0.92227,2.31797 -1.89934,4.38392 -2.17128,4.59101 -0.27193,0.20709 -1.07612,0.37652 -1.78709,0.37652 -1.46929,0 -1.49156,0.0715 -0.70387,2.25915 0.548,1.52198 0.66658,1.48828 1.05953,-0.30122 0.19406,-0.88377 0.93712,-1.95793 1.3544,-1.95793 0.11535,0 0.19567,2.54154 0.1785,5.64787 -0.0334,6.04375 0.18045,7.2331 1.41514,7.87009 0.44073,0.22739 1.97285,0.27946 4.70364,0.15989 2.2275,-0.0975 4.09166,-0.21823 4.14258,-0.26821 z m 25.84655,-30.09077 c -1.76061,-1.20122 -3.67834,-1.69326 -6.59961,-1.69326 -1.47924,0 -2.68952,-0.12449 -2.68952,-0.27665 0,-0.15215 0.50625,-0.59082 1.125,-0.9748 0.84975,-0.52734 0.99565,-0.72318 0.59633,-0.80042 -1.02442,-0.19814 -0.16878,-0.65908 1.22138,-0.65798 0.8767,6.1e-4 1.77763,0.22785 2.38954,0.60244 0.54024,0.33073 1.04649,0.60132 1.125,0.60132 0.0785,0 0.14275,-0.55873 0.14275,-1.24162 0,-1.21887 0.0124,-1.23345 0.675,-0.79582 0.37125,0.24518 0.82014,0.73149 0.99754,1.08068 0.31169,0.61354 0.40757,0.57574 2.85,-1.1234 2.74102,-1.90688 3.88168,-2.43162 3.87087,-1.78069 -0.0165,0.99445 -2.05231,4.51275 -4.10876,7.10079 l -0.53999,0.67959 -1.05553,-0.72018 z m -53.30449,21.39162 c 1.03797,-0.44112 1.91477,-1.29571 2.4399,-2.3781 0.18029,-0.37163 1.0416,-1.01771 1.91401,-1.43576 l 1.58621,-0.7601 -0.91238,-0.87767 c -1.68414,-1.62005 -1.06774,-2.57227 1.6651,-2.57227 2.22572,0 2.01002,0.5043 2.67635,-6.25718 0.26597,-2.69893 0.86841,-6.48786 1.34057,-8.43129 0.47924,-1.97262 0.7373,-3.6042 0.585,-3.6987 -0.14988,-0.093 -0.59048,-0.95382 -0.9791,-1.91293 l -0.70659,-1.74381 -0.90575,1.15702 c -1.17781,1.50455 -1.7879,2.72495 -2.04195,4.08463 -0.11298,0.6047 -0.4449,1.31707 -0.73759,1.58302 -0.49088,0.44605 -0.54349,0.44012 -0.67804,-0.0765 -0.22866,-0.87791 0.28639,-4.11164 1.26742,-7.95755 0.70486,-2.76325 0.9639,-4.64797 1.20061,-8.73537 0.16601,-2.86655 0.37903,-5.82188 0.47338,-6.5674 0.27533,-2.17564 1.0564,-5.42195 1.30452,-5.42195 0.95046,0 2.69058,17.75664 2.27694,23.2345 -0.10012,1.32595 -0.0628,1.68506 0.12108,1.16428 0.14623,-0.41417 0.27932,-1.99785 0.29577,-3.51928 0.0176,-1.63054 0.35805,-4.47487 0.82917,-6.92804 0.67725,-3.52647 0.80319,-5.01254 0.825,-9.73439 l 0.0257,-5.57256 -0.9,-0.10196 c -1.17227,-0.1328 -1.65,-0.55435 -1.65,-1.45597 0,-0.40212 -0.19365,-1.10714 -0.43034,-1.5667 -0.31975,-0.62083 -0.36013,-1.13953 -0.15716,-2.01828 0.15025,-0.65048 0.2764,-1.691 0.28034,-2.31227 0.006,-0.93846 -0.0964,-1.12957 -0.60479,-1.12957 -1.27131,0 -2.99486,1.20693 -3.95052,2.7664 l -0.94345,1.53953 -0.6739,-0.84858 -0.67389,-0.84859 -0.16704,1.03007 c -0.0919,0.56654 -0.37207,3.19885 -0.62267,5.84958 -0.68842,7.28201 -0.75383,7.6811 -1.25878,7.6811 -0.37866,0 -0.41542,-0.4655 -0.24382,-3.0875 0.11113,-1.69812 0.32695,-3.96857 0.4796,-5.04543 0.68079,-4.80275 0.68617,-4.60226 -0.16892,-6.29656 -0.82545,-1.63556 -1.32498,-1.96062 -0.77306,-0.50305 0.4921,1.29958 0.36553,2.75058 -0.51072,5.85528 -0.72538,2.57011 -0.81787,3.40212 -0.80814,7.26994 0.007,2.81885 0.18894,5.27563 0.51283,6.92805 1.54151,7.86451 2.4227,19.6828 1.73301,23.24268 -0.4112,2.12241 -2.15584,6.10009 -3.59981,8.20737 -0.51794,0.75586 -2.21905,2.74621 -3.78024,4.42298 -1.56119,1.67678 -2.83853,3.16717 -2.83853,3.31197 0,0.75729 6.32062,1.13162 7.88463,0.46695 z m 78.81612,-2.60103 c -0.69031,-0.82785 -1.35753,-1.56875 -1.48272,-1.64643 -0.24135,-0.14977 -1.10724,1.26291 -0.89349,1.45772 0.25885,0.23591 3.13574,1.66641 3.37839,1.67986 0.13911,0.008 -0.31187,-0.6633 -1.00218,-1.49115 z m -62.10076,-3.31584 c 0,-0.16649 1.0438,-2.62299 2.31955,-5.45887 1.45803,-3.24106 2.73444,-5.6294 3.43658,-6.43032 2.06326,-2.35352 6.49192,-4.09336 14.19387,-5.57619 2.98493,-0.57469 2.78366,-0.37434 2.50512,-2.49357 -1.06148,-8.0762 -1.04272,-8.01936 -4.03262,-12.22081 -1.95181,-2.74273 -5.5225,-9.36212 -5.5225,-10.2377 0,-1.06651 -2.98852,-6.85676 -5.39099,-10.44506 -3.97627,-5.93887 -4.62419,-6.79759 -4.83315,-6.40558 -0.11176,0.20966 -0.45423,1.37278 -0.76103,2.58471 l -0.55782,2.20351 0.70051,1.26052 c 2.45651,4.4203 2.37904,4.13011 2.70849,10.14648 0.32397,5.91636 0.11923,9.91938 -0.70756,13.83395 -0.53703,2.54267 -0.79723,3.49068 -3.02377,11.01666 -2.66155,8.99639 -3.73468,13.92482 -3.73468,17.15191 l 0,1.37309 1.35,0 c 0.7425,0 1.35,-0.13623 1.35,-0.30273 z m 77.87257,-2.10703 c -0.30923,-1.36241 -0.41485,-1.53631 -0.59452,-0.97896 -0.23051,0.71505 -0.0106,1.77483 0.50142,2.41703 0.47989,0.60185 0.49681,0.34056 0.0931,-1.43807 z m -6.01182,-8.50391 c 1.00891,-1.94513 0.95328,-2.47059 -0.32608,-3.08015 -2.48622,-1.18459 -4.59014,-0.72838 -6.69454,1.45164 l -0.98388,1.01923 1.48876,2.9752 c 0.81881,1.63636 2.134,3.8539 2.92263,4.92788 l 1.43387,1.95271 0.70999,-3.91064 c 0.43346,-2.38748 0.99792,-4.46574 1.44925,-5.33587 z M 153.57499,185.4392 c -0.0687,-0.056 -0.8,-0.54235 -1.625,-1.08079 l -1.5,-0.97898 1.12059,1.08077 c 0.61633,0.59444 1.34758,1.08079 1.62501,1.08079 0.27742,0 0.44815,-0.0458 0.3794,-0.10179 z m -34.19655,-15.12109 c 0.34185,-0.91741 0.62155,-1.75391 0.62155,-1.85891 0,-0.48283 -1.06279,-1.2926 -1.69649,-1.2926 -0.86113,0 -0.86153,0.12194 0.0117,-3.58813 0.39337,-1.67129 0.61992,-3.0387 0.50344,-3.0387 -0.57019,0 -3.23235,1.04232 -3.69833,1.44801 -0.5045,0.43924 -0.50094,0.49183 0.075,1.10737 0.33256,0.35544 0.60465,0.8321 0.60465,1.05925 0,0.22715 0.30375,0.7391 0.675,1.13768 0.60402,0.64847 0.66862,0.99752 0.61436,3.31934 -0.0627,2.683 0.16805,3.37469 1.12582,3.37469 0.38224,0 0.72469,-0.49105 1.16327,-1.668 z m 46.99555,-33.45796 c 0.89083,-0.76415 1.55958,-1.48703 1.48612,-1.60639 -0.0735,-0.11936 0.19795,-0.70689 0.60315,-1.30562 0.4052,-0.59873 0.73673,-1.32792 0.73673,-1.6204 0,-0.29249 0.37125,-0.83701 0.825,-1.21003 0.80316,-0.66027 0.80714,-0.67852 0.15,-0.68906 -0.42693,-0.007 -0.675,-0.19617 -0.675,-0.51516 0,-0.41748 -0.12918,-0.38249 -0.75,0.20311 -0.53538,0.50501 -0.75,1.02333 -0.75,1.81132 0,0.70772 -0.27157,1.47259 -0.75675,2.13133 -1.20292,1.63326 -2.81746,4.19027 -2.64581,4.19027 0.0863,0 0.88573,-0.62522 1.77656,-1.38937 z m -8.59144,-1.20896 c 0.353,-0.60073 0.59275,-1.14151 0.53276,-1.20173 -0.23869,-0.23966 -1.76747,1.66434 -1.58038,1.96827 0.2908,0.47244 0.34127,0.43551 1.04762,-0.76654 z m 0.0819,-3.12176 c -0.0724,-0.49532 -0.25152,-0.8262 -0.39804,-0.73527 -0.31194,0.19356 -0.35593,1.14433 -0.0664,1.43504 0.42122,0.42293 0.59113,0.16691 0.46444,-0.69977 z m 21.99342,-3.02399 c 0.53631,-0.59503 0.53358,-0.62331 -0.1035,-1.07135 -0.77225,-0.5431 -0.8545,-1.56816 -0.16638,-2.07338 0.40275,-0.29569 0.4253,-0.47589 0.12908,-1.03161 -0.29923,-0.56141 -0.435,-0.60993 -0.81665,-0.29192 -0.32942,0.27451 -0.40773,0.69547 -0.27934,1.50161 0.31748,1.99346 -0.47402,2.87115 -0.98543,1.09275 l -0.28152,-0.97897 -0.0271,1.12958 c -0.0295,1.23099 -0.0864,1.28011 -0.94678,0.81776 -0.47697,-0.25631 -0.58028,-0.21214 -0.58028,0.24808 0,0.38998 0.34146,0.65592 1.125,0.8762 1.7373,0.48842 2.3357,0.44379 2.93286,-0.21875 z m -2.4534,-6.02028 c 0.55594,-0.007 -0.50077,-0.58813 -1.07946,-0.59322 -0.41915,-0.004 -0.52398,0.25349 -0.51994,1.27557 l 0.005,1.28019 0.6244,-0.97897 c 0.34343,-0.53843 0.7799,-0.98104 0.96995,-0.98357 z m 2.54383,-0.97879 c 0.8438,-0.44962 2.32896,-3.83611 1.68234,-3.83611 -0.55603,0 -1.93063,0.65156 -1.93063,0.91512 0,0.11879 0.20872,0.38991 0.46382,0.60248 0.40764,0.3397 0.3276,0.52657 -0.66089,1.54299 -1.12955,1.16146 -0.93025,1.5085 0.44536,0.77552 z m -12.96946,-15.9602 c -0.55919,-2.40926 -1.93485,-5.81575 -2.58844,-6.40965 -0.32107,-0.291739 -0.80554,-1.324079 -1.0766,-2.294069 -0.27107,-0.97001 -0.60241,-1.763653 -0.73631,-1.763653 -0.1339,0 -0.45361,0.301259 -0.71047,0.66946 -0.63327,0.907803 -0.62888,5.071822 0.007,6.946582 0.42717,1.25875 0.71791,1.54866 2.92375,2.91524 1.34718,0.83462 2.47155,1.51749 2.49861,1.51749 0.0271,0 -0.11598,-0.71163 -0.31786,-1.5814 z m 18.87699,-4.26367 c 1.84935,-1.21977 1.96207,-1.35339 1.39761,-1.65671 -0.86505,-0.46484 -0.95343,-0.42562 -0.95343,0.42312 0,1.01877 -1.106,1.04051 -1.48892,0.0292 -0.36779,-0.97131 -0.71666,-1.142069 -1.3633,-0.66731 -0.49456,0.3631 -0.50553,0.51627 -0.12871,1.79767 0.22656,0.77041 0.4374,1.40075 0.46854,1.40075 0.0311,0 0.96184,-0.59706 2.06821,-1.32678 z m 13.94418,-4.697609 c 0,-0.16567 -0.27797,-0.30122 -0.61771,-0.30122 -0.33973,0 -0.53427,0.13555 -0.43229,0.30122 0.10198,0.16567 0.37994,0.30122 0.61771,0.30122 0.23776,0 0.43229,-0.13555 0.43229,-0.30122 z m 9.23814,-3.262203 c 0.0485,-1.187859 0.15861,-2.159744 0.24473,-2.159744 0.0861,0 0.4177,0.140318 0.73685,0.311813 1.02173,0.549042 0.62755,0.115567 -1.22077,-1.342455 -1.23453,-0.973853 -2.01304,-1.383733 -2.475,-1.303096 -0.67065,0.117074 -0.67027,0.119223 0.0761,0.438073 1.49993,0.640825 1.90323,1.418262 1.68829,3.254486 -0.21958,1.875895 0.0127,3.242287 0.52251,3.073193 0.19868,-0.06587 0.37572,-1.007248 0.42734,-2.27227 z M 153.75216,75.520581 c 0.21704,-0.952607 0.28604,-1.732012 0.15332,-1.732012 -0.37398,0 -0.55762,0.698508 -0.72717,2.765938 -0.16294,1.986804 -0.0806,1.838423 0.57385,-1.033926 z M 146.0908,24.237958 c 0,-0.16567 -0.13086,-0.0979 -0.29081,0.15061 -0.15995,0.248506 -0.29081,0.587378 -0.29081,0.753049 0,0.165671 0.13086,0.0979 0.29081,-0.15061 0.15995,-0.248506 0.29081,-0.587378 0.29081,-0.753049 z m 0.10163,-8.019618 c 0.40181,-0.640724 -0.29294,-3.206973 -0.95982,-3.545352 -0.26544,-0.134676 -0.95512,-0.111672 -1.53262,0.05111 -1.1216,0.316189 -1.07084,0.365739 0.675,0.658926 1.53406,0.257623 1.4128,0.645996 -0.3,0.96085 l -1.425,0.261961 1.125,0.698849 c 0.61875,0.384376 1.125,0.901068 1.125,1.148209 0,0.574034 0.88621,0.413203 1.29244,-0.23456 z m -4.02829,-5.806758 c 0.26722,-0.314995 1.06766,-0.9471445 1.77875,-1.4047875 1.13877,-0.732887 1.22035,-0.855192 0.68434,-1.026014 -0.55067,-0.17548 -1.22072,-1.7035468 -1.22556,-2.7949548 -0.002,-0.499884 1.03704,-0.482765 1.45589,0.024 0.19295,0.233435 0.69974,0.346161 1.2149,0.270244 0.78349,-0.115458 0.95518,0.01014 1.5118,1.105596 0.78883,1.5525358 1.38823,1.6363548 0.75998,0.10628 -0.58463,-1.423854 -1.18936,-1.882622 -2.48159,-1.882622 -0.76606,0 -1.28252,-0.260926 -2.05832,-1.03988 -0.73065,-0.7336101 -0.98093,-0.8666891 -0.84979,-0.4518291 0.10224,0.323429 0.0755,0.5923581 -0.0593,0.5976291 -0.13487,0.005 -0.49739,0.201346 -0.80561,0.435714 -0.53763,0.408826 -0.52698,0.454982 0.26195,1.136351 l 0.82233,0.710215 -0.80422,0.529092 -0.80422,0.5290828 0.7665,0.605381 c 0.6236,0.492514 0.70875,0.713739 0.45672,1.186574 -0.29167,0.547215 -0.35354,0.552386 -1.05858,0.08856 -0.41185,-0.270947 -0.81818,-0.422993 -0.90296,-0.337868 -0.0848,0.08515 0.0106,0.811646 0.21193,1.6144855 0.20134,0.802841 0.42753,1.259861 0.50265,1.015602 0.0751,-0.244259 0.35522,-0.701821 0.62244,-1.016817 z m -4.50815,-1.5146215 c 0.82701,-1.565258 1.68997,-1.608171 1.46555,-0.07289 l -0.134,0.916721 0.70473,-0.88434 c 0.82177,-1.031205 0.85941,-1.315305 0.27915,-2.1069608 -0.39838,-0.54351 -0.44286,-0.547717 -0.63128,-0.05974 -0.14173,0.367087 -0.40665,0.473598 -0.88076,0.354114 -0.45549,-0.114785 -0.73756,-0.01516 -0.85931,0.3033678 -0.0997,0.260826 -0.42173,0.474933 -0.71566,0.475797 -0.41169,0.001 -0.55006,0.277895 -0.60254,1.204878 -0.0915,1.6169355 0.47936,1.5625255 1.37412,-0.13097 z m 8.804,-0.834489 c -0.1925,-0.193282 -0.44959,-0.251428 -0.57131,-0.129213 -0.12172,0.122215 -0.0266,0.343019 0.21131,0.490677 0.56028,0.347677 0.81328,0.09368 0.36,-0.361464 z M 137.9892,4.4670957 c 0.0191,-0.338862 2.02596,-1.1638921 2.83113,-1.1638921 0.63354,0 0.77966,-0.142437 0.77966,-0.759997 0,-0.728971 -0.0289,-0.74102 -0.70658,-0.295145 -0.38861,0.255665 -1.80098,0.83488 -3.1386,1.287131 l -2.43203,0.8222791 0.63323,1.003011 0.63324,1.003021 0.69458,-0.852411 c 0.38202,-0.468818 0.69944,-0.938621 0.70537,-1.043997 z M 240.76905,251.04619 c -0.81451,-0.22441 -1.82701,-0.66157 -2.25,-0.97146 -0.95689,-0.70108 -1.89627,-2.54523 -1.75998,-3.45514 0.0918,-0.61266 0.18753,-0.55177 0.91731,0.58315 0.44817,0.69698 1.10503,1.42316 1.45969,1.61374 0.6891,0.3703 3.60968,0.4193 6.18892,0.10383 1.86254,-0.2278 1.96435,0.0131 0.64392,1.52301 -0.82536,0.94385 -1.08935,1.0617 -2.325,1.03782 -0.76666,-0.0149 -2.06034,-0.21054 -2.87486,-0.43495 z m 0.90502,-3.95612 c -0.94801,-1.40079 -0.70112,-1.85175 0.47143,-0.86111 1.0534,0.88998 2.52133,0.99382 4.44008,0.3141 0.93862,-0.33252 1.22992,-0.35176 1.13939,-0.0753 -0.24276,0.74132 -2.44618,1.7169 -3.88917,1.72196 -1.29487,0.005 -1.47725,-0.0883 -2.16173,-1.09964 z m 3.29622,-8.91096 c 0.44717,-4.20726 3.48496,-14.08201 4.33208,-14.08201 0.37097,0 2.92102,1.5001 3.21661,1.89221 0.15214,0.20181 0.42533,1.04468 0.60708,1.87303 0.18175,0.82835 0.87406,2.69215 1.53846,4.14177 1.14254,2.49285 1.25883,2.63567 2.14603,2.63567 l 0.93803,0 -1.42495,-2.63567 c -0.78373,-1.44962 -1.56753,-2.8695 -1.74179,-3.15529 -0.23183,-0.38022 -0.21145,-0.62264 0.076,-0.90366 0.32028,-0.31315 0.57938,-0.16924 1.40362,0.77962 0.97455,1.12188 2.83856,5.08431 2.83856,6.03407 0,0.6028 -1.06916,1.1681 -1.7805,0.94141 -1.21248,-0.38638 -4.85034,0.72172 -8.34162,2.5409 -1.92168,1.00131 -3.60956,1.82057 -3.75082,1.82057 -0.14127,0 -0.16681,-0.84718 -0.0568,-1.88262 z m -94.01801,-69.71859 c -0.16681,-0.79449 -0.40215,-2.12192 -0.52299,-2.94986 -0.20868,-1.42993 -0.19244,-1.48274 0.32426,-1.05426 1.43941,1.19362 1.97524,4.221 0.90495,5.11287 -0.32303,0.26917 -0.46307,0.0493 -0.70622,-1.10875 z m -9.32988,-2.89492 c -0.40571,-1.06705 -0.41334,-2.63791 -0.0179,-3.68224 0.24648,-0.65093 0.44049,-0.76991 1.01805,-0.62437 0.61728,0.15556 0.79879,-0.002 1.34549,-1.17007 0.34757,-0.74244 0.63195,-1.88557 0.63195,-2.54027 0,-1.31773 0.44945,-1.87552 0.74862,-0.9291 0.25346,0.80184 0.63828,0.77011 0.86037,-0.0709 0.16201,-0.61353 0.27928,-0.52865 1.23777,0.89593 0.95863,1.42477 1.12349,1.54408 1.74242,1.26093 0.43959,-0.2011 0.87628,-0.87037 1.22336,-1.87489 0.29687,-0.85919 0.84462,-2.03657 1.21723,-2.61642 0.60476,-0.94109 1.97024,-3.79508 1.97024,-4.11796 0,-0.0691 -0.16916,-0.0865 -0.37592,-0.0389 -0.20676,0.0477 -0.84041,-0.2454 -1.40812,-0.6513 -1.37971,-0.98643 -3.9635,-1.0731 -4.81639,-0.16155 -0.72504,0.77491 -1.37335,2.35019 -1.64237,3.9907 -0.11546,0.7041 -0.30173,1.28018 -0.41393,1.28018 -0.53717,0 -2.48755,-1.62201 -2.89001,-2.40344 -0.61335,-1.19089 -0.55996,-2.90395 0.13866,-4.44931 0.62916,-1.3917 1.20742,-1.6798 1.2092,-0.60243 9e-4,0.62025 0.0478,0.60089 0.55139,-0.22825 0.30265,-0.49829 1.04943,-1.28825 1.65951,-1.75548 0.61008,-0.46722 1.52234,-1.58445 2.02725,-2.48274 0.51494,-0.91614 1.0561,-1.54755 1.23251,-1.43808 0.21525,0.13357 0.24868,-0.47544 0.10593,-1.92998 -0.22288,-2.27117 0.31376,-5.15807 1.25698,-6.76186 0.44896,-0.76339 2.01408,-1.6958 2.32408,-1.38454 0.0767,0.077 -0.35303,1.28131 -0.95504,2.67614 -1.44778,3.35446 -1.696,6.04486 -0.70607,7.65311 0.53697,0.87238 0.6459,1.40062 0.53271,2.58343 -0.0783,0.81776 -0.0485,1.48684 0.0662,1.48684 0.11466,0 0.38343,0.57609 0.59727,1.28019 l 0.38878,1.28018 0.33634,-0.98232 c 0.3693,-1.07857 1.84911,-3.08414 2.27564,-3.08414 0.14795,0 0.0577,0.62252 -0.20046,1.38339 -0.48445,1.42758 -0.42812,3.92148 0.16268,7.20136 0.27054,1.50197 0.26789,1.50941 -0.96776,2.71528 -0.68147,0.66505 -1.81499,1.7172 -2.51893,2.33811 -1.13802,1.00378 -1.33049,1.37058 -1.73641,3.30911 -0.25108,1.1991 -0.68763,2.65461 -0.97011,3.23445 -0.47642,0.97798 -0.64271,1.07038 -2.29786,1.27679 -1.60185,0.19976 -1.85847,0.15357 -2.51012,-0.45183 -0.69365,-0.64443 -0.74094,-0.64981 -1.06573,-0.12112 -0.97459,1.58637 -1.0236,1.61173 -1.36747,0.70735 z m 1.68253,-15.32376 c -0.0958,-0.2403 -0.16686,-0.16892 -0.18125,0.18198 -0.013,0.31754 0.0579,0.49545 0.15756,0.39535 0.0997,-0.1001 0.11035,-0.35989 0.0237,-0.57733 z m 7.57097,-3.85938 c 0.3368,-0.71005 0.33055,-0.71966 -0.10936,-0.16834 -0.2566,0.32158 -0.46655,0.71693 -0.46655,0.87856 0,0.38271 0.13857,0.21182 0.57591,-0.71022 z m -14.51774,14.71239 c -0.45251,-0.35739 -1.20373,-1.17787 -1.66938,-1.8233 l -0.84663,-1.17349 -0.60421,1.37147 c -0.9898,2.24669 -1.32641,1.82645 -1.70314,-2.12625 l -0.20417,-2.14225 0.94625,-0.3312 c 0.64841,-0.22696 1.05036,-0.63104 1.27698,-1.28376 0.38043,-1.09577 0.64712,-0.80572 0.98338,1.06952 0.21796,1.2155 1.00911,3.02626 1.22674,2.80774 0.0659,-0.0662 -0.0179,-0.62092 -0.18622,-1.23287 -0.20143,-0.73248 -0.20652,-1.47428 -0.0149,-2.17112 0.27274,-0.99181 0.23584,-1.08717 -0.5859,-1.51383 -1.06477,-0.55286 -1.08425,-0.75272 -0.15262,-1.56606 1.40295,-1.22481 1.90124,-1.35828 2.56877,-0.68804 0.33378,0.33514 0.60687,0.76599 0.60687,0.95743 0,0.6551 1.52781,2.35951 3.61097,4.02838 2.48384,1.98988 2.7817,2.73086 1.68047,4.18051 -1.61395,2.12461 -5.23381,2.97935 -6.93327,1.63712 z m -8.70817,-7.53341 c -1.55049,-0.86104 -1.95,-1.511 -1.95,-3.17248 0,-1.70307 -0.007,-1.69482 1.98158,-2.31603 0.5945,-0.18571 0.62332,-0.11096 0.49089,1.27287 -0.097,1.0139 0.0198,1.80976 0.37645,2.56438 0.48752,1.03156 0.45574,2.01393 -0.0645,1.99361 -0.12893,-0.005 -0.50442,-0.1591 -0.83442,-0.34235 z m 3.48679,-2.45438 c -0.18523,-0.46638 -0.33679,-1.01158 -0.33679,-1.21156 0,-0.19997 -0.4156,-0.86983 -0.92356,-1.48857 l -0.92356,-1.125 0.94877,-1.20279 c 0.63747,-0.80813 1.18658,-1.20278 1.67356,-1.20278 0.7122,0 0.72456,0.0458 0.71126,2.63567 -0.008,1.51229 -0.18388,3.02083 -0.41321,3.53933 l -0.39967,0.90366 -0.3368,-0.84796 z m 2.65997,-1.81591 c -0.002,-0.85426 -0.19345,-2.18244 -0.42592,-2.9515 -0.36799,-1.21745 -0.36537,-1.48043 0.0203,-2.03323 0.5297,-0.75932 1.2295,-0.80787 2.16467,-0.15018 0.65116,0.45794 0.67803,0.61202 0.48592,2.78628 -0.21989,2.48857 -0.65197,3.48443 -1.62237,3.73922 -0.56635,0.14871 -0.6196,0.0297 -0.62256,-1.39059 z m -9.74817,-2.98399 c -0.163,-0.4629 -0.73116,-3.00261 -0.74125,-3.31342 -0.0221,-0.68007 0.69103,-0.0316 1.46865,1.33546 0.8195,1.44072 0.84895,1.59127 0.38107,1.94835 -0.64682,0.49364 -0.9423,0.50153 -1.10847,0.0296 z m 1.83042,-2.10854 c -0.59504,-3.93109 -0.22712,-4.68913 0.9478,-1.95279 0.82409,1.91927 0.8348,2.22128 0.0929,2.61994 -0.8309,0.44649 -0.87658,0.41721 -1.04071,-0.66715 z m 12.5939,-0.1887 c -0.10328,-0.16779 0.60291,-1.09653 1.56932,-2.06387 1.96099,-1.96286 2.75777,-3.74356 2.75777,-6.16328 0,-1.22609 -0.40638,-2.27079 -2.57559,-6.62116 -1.41658,-2.84095 -2.69574,-5.48265 -2.84258,-5.87043 -0.50651,-1.33764 0.23424,-0.69888 1.62521,1.40145 0.76728,1.15858 2.06683,2.85131 2.88788,3.76163 1.96242,2.17579 3.04775,4.40386 4.27137,8.76866 l 1.00557,3.58698 -0.64075,1.14445 c -0.97555,1.74246 -1.13536,1.83424 -2.21635,1.27297 -0.96199,-0.49948 -1.72221,-0.36195 -5.30941,0.96061 -0.18956,0.0699 -0.42916,-0.0102 -0.53244,-0.17801 z m -9.00597,-0.98225 c -0.50041,-1.46539 -0.96743,-3.87448 -0.7511,-3.87448 0.34308,0 1.78416,2.48539 1.78416,3.07708 0,0.68058 -0.84913,1.336 -1.03306,0.7974 z m 18.09672,-3.62277 c -0.40467,-0.73956 -1.19323,-7.35432 -0.95198,-7.98557 0.0771,-0.20184 0.69694,-0.40808 1.37733,-0.45832 1.03611,-0.0765 1.26544,-0.21307 1.41165,-0.84051 0.12188,-0.52306 0.53294,-0.88667 1.36212,-1.20487 1.73408,-0.66546 1.93722,-0.8535 1.93722,-1.79324 0,-0.62123 -0.2892,-1.07161 -1.07408,-1.67271 -0.79976,-0.61249 -1.03614,-0.98704 -0.92551,-1.46654 0.11622,-0.50379 -0.2377,-0.96522 -1.62592,-2.11977 -0.97597,-0.81169 -1.77449,-1.5911 -1.77449,-1.73201 0,-0.14092 0.405,-0.25622 0.9,-0.25622 1.00298,0 1.17474,-0.40703 0.375,-0.88868 -0.5,-0.30113 -0.5,-0.33125 0,-0.63238 0.85351,-0.51404 0.62765,-1.07414 -1.36107,-3.37526 -2.12968,-2.46422 -3.51393,-4.25376 -3.51393,-4.54278 0,-0.32098 2.44278,0.73983 4.05,1.75877 1.81377,1.14988 3.20041,2.68752 4.18765,4.64367 0.8142,1.61327 2.88472,3.35438 3.72625,3.13342 0.29318,-0.077 1.04422,-1.0452 1.66898,-2.15159 1.06094,-1.87884 3.59916,-4.87321 4.13084,-4.87321 0.53283,0 0.17531,1.02916 -0.76719,2.20845 -0.55191,0.69056 -1.11372,1.44748 -1.24845,1.68203 -0.21666,0.37718 2.29968,-0.9049 3.89367,-1.98385 0.76004,-0.51445 1.05825,-0.5067 1.05825,0.0275 0,0.46898 -2.57867,3.18659 -3.02368,3.18659 -0.15198,0 -0.27632,0.14693 -0.27632,0.32653 0,0.17959 0.50625,-0.0688 1.125,-0.5519 1.75877,-1.37328 1.875,-1.4074 1.875,-0.55053 0,0.61524 -0.29172,0.91418 -1.48414,1.52087 -1.02201,0.52 -1.54871,0.65023 -1.69151,0.41823 -0.31586,-0.51315 -0.79746,0.54074 -0.57243,1.25263 0.23873,0.75522 -0.0472,0.75005 -1.31111,-0.0237 -0.55506,-0.33976 -1.29751,-0.57647 -1.6499,-0.52601 -0.53868,0.0771 -0.62589,0.26274 -0.54762,1.16541 0.0627,0.72282 -0.0975,1.30998 -0.49016,1.79687 -0.5812,0.72066 -0.58053,0.72879 0.19019,2.30664 0.4254,0.8709 0.71343,1.63306 0.64006,1.69369 -0.0734,0.0607 -1.82088,1.27012 -3.88338,2.68776 -5.13941,3.53251 -4.94116,3.25226 -4.99241,7.0574 -0.0233,1.73185 -0.11363,3.22034 -0.20069,3.30776 -0.0871,0.0874 -0.33151,-0.15767 -0.54324,-0.54462 z m 6.03634,-15.14791 c 0,-0.14928 -0.66508,-1.74292 -0.81384,-1.9501 -0.0508,-0.0708 -0.27669,0.12449 -0.50198,0.43385 -0.3581,0.49173 -0.32941,0.62978 0.2281,1.09756 0.6175,0.51812 1.08772,0.69912 1.08772,0.41869 z m -34.67776,10.68331 c -0.20346,-1.53997 -0.22318,-1.56531 -1.08378,-1.39249 -0.79908,0.16046 -0.85807,0.11645 -0.66744,-0.49802 0.50896,-1.64062 0.74728,-2.02996 1.24656,-2.03649 0.29283,-0.004 1.54492,-0.90092 2.78242,-1.99351 6.0891,-5.37611 7.8168,-6.71064 8.93053,-6.89826 1.76804,-0.29784 2.99127,-0.73455 3.38221,-1.20753 0.30279,-0.36632 0.19822,-0.43708 -0.65101,-0.44053 -0.55645,-0.002 -1.3044,-0.0829 -1.66212,-0.17928 -0.51303,-0.13817 -0.67143,-0.0298 -0.75,0.51292 -0.0997,0.68898 -0.77822,0.97106 -3.77461,1.56929 -1.39537,0.27859 -1.27989,-0.46606 0.15,-0.96723 1.68736,-0.59142 2.475,-1.17881 2.475,-1.84575 0,-0.53019 -0.13793,-0.5769 -1.2,-0.40638 -1.49451,0.23995 -1.59606,-0.25317 -0.225,-1.09252 0.64411,-0.39431 1.50952,-0.59726 2.55,-0.59801 1.69232,-0.001 1.96013,0.2963 0.92319,1.02555 -0.72745,0.51161 -0.81348,0.45662 1.89445,1.21082 0.95015,0.26463 2.10163,0.38929 2.625,0.28419 0.87183,-0.17507 0.93236,-0.13047 0.93236,0.68706 0,0.48086 -0.22243,1.19315 -0.4943,1.58287 -0.46395,0.66507 -0.62213,0.69665 -2.57589,0.51433 l -2.08158,-0.19425 -2.50434,1.51884 c -1.37739,0.83536 -2.81699,1.91847 -3.19911,2.40691 -0.38213,0.48844 -1.43068,1.8317 -2.33013,2.98503 -1.25948,1.615 -1.7421,2.03698 -2.09981,1.83598 -0.30272,-0.1701 -0.63683,-0.10436 -0.95946,0.18881 -0.3895,0.35392 -0.46226,0.81483 -0.34138,2.16254 0.13139,1.46482 0.064,1.79389 -0.46545,2.27319 -0.61614,0.55778 -0.62007,0.553 -0.82631,-1.00808 z m 22.63236,-8.08056 c -0.62237,-0.78201 -2.60759,-4.92804 -2.78944,-5.82558 -0.1636,-0.80748 -2.44714,-2.70714 -3.93858,-3.2765 -0.39962,-0.15255 -0.72658,-0.41626 -0.72658,-0.58604 0,-0.83153 4.30676,0.0373 7.4373,1.50021 2.11384,0.98787 4.5627,2.86569 4.5627,3.49875 0,0.58638 -0.4112,0.52175 -2.07899,-0.32682 l -1.45903,-0.74235 0.46993,1.4755 c 0.35773,1.12318 0.70851,1.60451 1.46902,2.01573 1.12558,0.60864 1.20253,0.88119 0.52357,1.85448 -0.30842,0.44212 -0.66344,0.62174 -1.01037,0.51118 -0.29419,-0.0938 -0.87689,-0.0399 -1.29491,0.11969 -0.59469,0.22701 -0.84805,0.17953 -1.16462,-0.21825 z m -19.1546,-1.42573 c 0,-0.73225 0.23147,-1.30036 0.73637,-1.80732 1.12804,-1.13262 1.66363,-0.97237 1.66363,0.49776 0,0.96206 -0.0976,1.19949 -0.43896,1.06797 -0.25437,-0.098 -0.68253,0.14177 -1.01818,0.57021 -0.77699,0.99181 -0.94286,0.93399 -0.94286,-0.32862 z m 37.5,0.0378 c 0,-0.10772 0.18762,-0.49607 0.41693,-0.863 0.22931,-0.36693 0.78317,-1.26258 1.23081,-1.99035 0.61761,-1.0041 0.87769,-1.22203 1.07848,-0.90366 0.45915,0.72804 0.29756,1.64836 -0.40122,2.2851 -0.88992,0.81093 -2.325,1.71944 -2.325,1.47191 z m -1.31908,-0.67929 c -0.10699,-0.33846 -0.10385,-0.87168 0.007,-1.18494 0.24121,-0.6818 1.31613,-1.92506 1.66439,-1.92506 0.57021,0 0.16949,1.73187 -0.62264,2.69104 -0.79298,0.96019 -0.86816,0.99023 -1.04873,0.41896 z m 12.60458,-1.95283 c -0.19874,-0.99775 0.58785,-3.06321 1.1645,-3.0578 0.165,10e-4 0.48827,0.33533 0.71838,0.74175 0.38095,0.67284 0.34383,0.85205 -0.41487,2.00318 -0.45828,0.69533 -0.93342,1.26424 -1.05588,1.26424 -0.12244,0 -0.30791,-0.42813 -0.41213,-0.95137 z m -4.0855,0.18772 c 0,-0.0887 0.22942,-0.51277 0.50982,-0.94246 l 0.50982,-0.78124 -0.98693,0.51243 c -0.97216,0.50478 -0.98393,0.50295 -0.78633,-0.12215 0.11033,-0.34904 0.62579,-1.5449 1.14547,-2.65749 l 0.94487,-2.02288 0.15664,1.48914 0.15664,1.48914 0.82926,-1.26323 c 0.45609,-0.69477 0.95146,-1.26322 1.10082,-1.26322 0.74495,0 -1.38697,4.88829 -2.35995,5.41114 -0.62704,0.33694 -1.22013,0.41026 -1.22013,0.15082 z M 115.06348,121.102 c -0.23646,-0.38416 0.4092,-2.31556 1.04569,-3.12802 1.22271,-1.56074 6.35965,-3.93683 9.81582,-4.5403 1.80374,-0.31495 0.99685,0.3264 -2.75846,2.19253 -2.76624,1.37464 -4.0074,2.17662 -4.7909,3.09569 -0.58159,0.68222 -0.99781,1.33728 -0.92492,1.45568 0.0729,0.11841 -0.4027,0.42638 -1.05686,0.68439 -0.65415,0.258 -1.25282,0.36601 -1.33037,0.24003 z m 58.8089,-0.90074 c -0.59148,-0.65623 -0.53296,-1.86585 0.10042,-2.07558 0.29996,-0.0993 0.36383,0.0143 0.21982,0.39111 -0.25529,0.66799 0.29406,1.35841 1.08084,1.35841 0.49932,0 0.53733,0.0758 0.22653,0.45183 -0.50206,0.60741 -1.00157,0.56882 -1.62761,-0.12577 z m -9.47648,-0.40136 c -0.002,-0.20709 -0.0856,-0.68207 -0.18532,-1.05552 -0.1557,-0.58337 0.0174,-0.76722 1.22903,-1.30536 0.77564,-0.34449 1.48362,-0.55268 1.5733,-0.46263 0.15156,0.15217 -2.22085,3.20003 -2.49085,3.20003 -0.0671,0 -0.12391,-0.16943 -0.12616,-0.37652 z m -54.89591,-1.88262 c -0.2054,-0.24851 -0.82147,-0.45183 -1.36903,-0.45183 -0.54755,0 -1.06784,-0.11744 -1.15619,-0.26097 -0.19977,-0.32455 0.66423,-1.10952 1.50277,-1.36529 0.34516,-0.10527 0.94111,-0.52654 1.32434,-0.93613 0.68884,-0.73621 0.69024,-0.75212 0.12245,-1.39301 -0.84582,-0.95472 -3.39888,-2.062 -4.77434,-2.07066 -0.66,-0.004 -1.36667,-0.11385 -1.57037,-0.24377 -0.61086,-0.38957 0.40634,-1.56067 1.36238,-1.5685 2.01743,-0.0165 4.25799,-1.83729 4.25799,-3.46022 0,-0.26651 0.12911,-0.40445 0.28691,-0.30653 0.37721,0.23407 3.61309,4.95463 3.61309,5.27082 0,0.13451 -0.3701,0.33782 -0.82245,0.45182 l -0.82246,0.20726 1.29272,1.21074 c 1.45355,1.36138 1.82662,1.35273 1.11661,-0.0259 -0.2639,-0.51241 -0.40139,-0.93164 -0.30552,-0.93164 0.0959,0 1.07301,0.47886 2.17145,1.06415 1.51345,0.80641 2.21784,1.02128 2.9084,0.88718 l 0.91125,-0.17696 -1.01114,0.94831 c -0.71409,0.66971 -1.2194,0.90834 -1.72004,0.81224 -0.60705,-0.11651 -0.68487,-0.04 -0.54166,0.53294 0.15928,0.63721 0.0831,0.66738 -1.6037,0.63502 -1.47551,-0.0283 -1.96982,0.10419 -2.96331,0.79437 -1.36689,0.94957 -1.69086,1.00476 -2.21015,0.37653 z m 23.90756,-2.39403 c -3.22363,-0.99879 -3.74785,-1.23035 -3.45378,-1.52562 0.0846,-0.085 2.1391,-0.84219 4.5656,-1.68282 3.86781,-1.33995 4.59482,-1.50315 5.89589,-1.32347 0.81623,0.11271 1.56348,0.33396 1.66055,0.49167 0.23422,0.38051 -2.20938,4.41944 -2.89754,4.78923 -0.91141,0.48975 -2.39342,0.2974 -5.77072,-0.74899 z m 20.11115,-1.16138 c -0.88893,-1.1756 -1.28773,-3.77825 -0.61846,-4.03613 0.71246,-0.2745 3.82179,0.4795 4.22475,1.0245 0.36655,0.49575 0.53265,2.19935 0.21445,2.19935 -0.0883,0 -0.49331,-0.21891 -0.9,-0.48646 -0.81929,-0.53901 -0.8639,-0.48385 -0.46362,0.57325 0.24384,0.64394 0.15956,0.78411 -0.7266,1.20841 -0.99797,0.47783 -1.00569,0.47567 -1.73052,-0.48292 z m 32.06196,-0.46122 c -0.19009,-0.30884 1.82749,-3.36325 2.22159,-3.36325 0.60394,0 0.68081,1.5171 0.109,2.15151 -0.72087,0.79979 -2.13241,1.53369 -2.33059,1.21174 z m -26.29699,-2.08307 c -0.54655,-1.50173 -0.56632,-1.5814 -0.39243,-1.5814 0.32476,0 2.50875,1.85761 2.50875,2.13385 0,0.15174 -0.40834,0.27591 -0.90742,0.27591 -0.71684,0 -0.97075,-0.17399 -1.2089,-0.82836 z m -5.64486,-2.39653 c -1.00246,-0.49587 -1.00505,-0.50246 -0.3,-0.76525 0.44037,-0.16413 1.44383,-0.12658 2.63516,0.0986 1.72989,0.32698 1.86786,0.40488 1.36766,0.77212 -0.75256,0.55251 -2.47162,0.50356 -3.70282,-0.10547 z M 137.09999,91.95442 c -0.2475,-0.10372 -1.46477,-0.825874 -2.70504,-1.604777 -3.11289,-1.954925 -4.64221,-2.704981 -5.5153,-2.704981 -0.84546,0 -0.9916,0.178874 -1.82722,2.236474 -0.33134,0.815893 -0.73744,1.526992 -0.90244,1.580238 -0.165,0.05321 -0.6375,-0.614307 -1.05,-1.483436 -0.60536,-1.275484 -1.15498,-1.858414 -2.85,-3.022727 -3.09831,-2.128232 -2.99584,-2.47361 0.4241,-1.429467 1.05825,0.323088 2.037,0.517375 2.175,0.431748 0.43224,-0.268226 0.27625,-0.755991 -0.4241,-1.326115 -1.20761,-0.98307 -0.28058,-1.016917 1.85933,-0.06788 2.00946,0.891164 2.11874,0.90733 2.7787,0.41102 0.37783,-0.284146 1.06093,-0.679005 1.518,-0.877458 1.01578,-0.441056 1.63054,-1.803673 1.0563,-2.341299 -0.21303,-0.199448 -1.56178,-0.739835 -2.99722,-1.200862 -1.43544,-0.461026 -2.78431,-0.946472 -2.99749,-1.078757 -0.72414,-0.44936 0.16435,-0.827521 2.6876,-1.143912 1.36412,-0.171042 2.74647,-0.454058 3.07189,-0.628926 0.79177,-0.425462 1.35451,-1.591915 1.78889,-3.707982 0.20379,-0.992799 0.55041,-1.824758 0.80037,-1.921068 0.24249,-0.09348 0.974,0.07149 1.62557,0.366514 1.33404,0.604016 1.28615,0.477343 2.33999,6.188123 0.8722,4.726456 0.87347,4.713202 -0.48763,5.081202 -1.01693,0.274943 -1.24382,0.535247 -2.25489,2.586869 l -1.12418,2.281175 2.32989,1.070895 c 1.28143,0.588985 2.65562,1.197288 3.05373,1.351783 0.48216,0.187098 0.62377,0.381374 0.42411,0.581846 -0.37796,0.379496 -2.2014,0.621787 -2.79796,0.371775 z m -20.10778,-5.778574 c -3.72381,-1.196725 -9.50528,-4.614759 -10.00141,-5.912895 -0.2639,-0.690506 0.16088,-0.549987 2.08768,0.690656 3.18602,2.051416 4.49684,2.735676 7.95779,4.154024 1.87755,0.769445 3.46997,1.451728 3.53872,1.516179 0.34963,0.327787 -2.13593,0.01697 -3.58278,-0.447964 z M 104.77499,74.775545 c -0.79574,-0.0991 -0.975,-0.25448 -0.975,-0.844851 0,-0.807298 -0.76631,-1.347003 -1.91257,-1.347003 -1.05207,0 -1.26619,-0.53357 -0.3773,-0.940227 1.26017,-0.576504 2.87228,-0.06034 4.3052,1.378371 1.89047,1.898165 1.76854,2.103707 -1.04033,1.75371 z M 97.934911,70.24924 c 0.34222,-1.916449 0.77805,-3.388942 1.00164,-3.384112 0.53749,0.01165 0.98151,0.573533 1.404609,1.777568 0.25236,0.718167 0.45883,1.350156 0.45883,1.404405 0,0.107636 -2.685389,1.331712 -2.921529,1.331712 -0.0799,0 -0.0545,-0.508308 0.0564,-1.129573 z m 83.806279,-4.376088 c -0.31659,-0.667904 -1.33658,-1.689119 -2.7,-2.703255 -3.35195,-2.493254 -3.82656,-3.393669 -1.05425,-2.000077 2.28223,1.147235 4.61418,3.987223 4.35569,5.304606 -0.0578,0.294472 -0.2841,0.06818 -0.60144,-0.601274 z M 97.210901,65.518225 c -0.2004,-0.242442 -0.25667,-0.610662 -0.12581,-0.823253 0.73232,-1.189757 4.403469,-6.132187 4.611929,-6.209028 0.30183,-0.11125 1.20297,1.132987 1.20297,1.660975 0,0.209889 -0.64313,1.094682 -1.42919,1.9662 -0.78605,0.871528 -1.742069,2.092903 -2.124479,2.714169 -0.72724,1.181503 -1.51836,1.437479 -2.13542,0.690937 z m 7.639089,-23.679358 c -0.49633,-0.319222 -1.43822,-0.581615 -2.1,-0.585039 -2.20444,-0.01135 -2.09294,-0.406495 0.5244,-1.858172 l 2.4756,-1.373059 3.45,0.702403 c 1.8975,0.386314 3.48375,0.707374 3.525,0.713469 0.23965,0.03534 0.006,0.639539 -0.40763,1.055071 -0.38156,0.383111 -0.83707,0.44445 -2.175,0.292896 -1.61948,-0.183453 -1.72799,-0.151503 -2.51968,0.741793 -0.94507,1.066378 -1.50081,1.12864 -2.77269,0.310638 z m 14.93166,-2.43799 -1.26835,-0.285366 0.94605,-1.715605 c 1.10404,-2.002126 1.10589,-2.004837 1.25477,-1.841114 0.0628,0.06898 0.3194,1.040462 0.5703,2.158739 0.50001,2.228543 0.57032,2.149774 -1.50277,1.683346 z m 6.27064,-15.709471 c -0.67132,-0.717485 -0.89645,-2.429185 -0.36304,-2.760195 0.45266,-0.280898 1.79917,2.081226 1.607,2.819093 -0.21194,0.813724 -0.43749,0.803051 -1.24396,-0.05894 z m 0.73312,-12.169519 c -0.10198,-0.102384 -0.18542,-0.480686 -0.18542,-0.840663 0,-0.636457 1.02339,-1.3536305 1.93159,-1.3536305 0.46367,0 0.9226,1.4841685 0.56002,1.8110525 -0.34847,0.314152 -2.08722,0.603101 -2.30619,0.383241 z m 3.25972,-0.09368 c -0.17972,-0.291972 1.32296,-3.0025965 1.66518,-3.0037505 0.0882,-2.91e-4 0.41293,0.428846 0.72169,0.953651 l 0.56137,0.9541925 -0.81342,0.702514 c -0.85487,0.738319 -1.81375,0.915015 -2.13482,0.393393 z m -5.34254,-1.9976075 c -0.10856,-0.109011 -0.0485,-0.378382 0.13357,-0.598603 0.18203,-0.220222 0.24482,-0.625784 0.13955,-0.901239 -0.22519,-0.589206 0.97971,-2.5139178 1.57565,-2.5169798 0.30044,-10e-4 0.3517,0.293146 0.20383,1.171914 -0.12131,0.7209688 -0.0736,1.2508638 0.12363,1.3732598 0.54844,0.340328 0.36062,0.635724 -0.73901,1.162225 -1.21297,0.580782 -1.17508,0.572619 -1.43722,0.309423 z m 3.2728,-2.7055438 c -0.22156,-0.579736 -0.28914,-0.499581 0.95841,-1.136721 0.92235,-0.471057 1.56619,-0.435332 1.56619,0.08695 0,0.125388 -0.52539,0.524464 -1.16753,0.886831 -1.05061,0.59288 -1.18653,0.609196 -1.35707,0.162969 z"
      />
</svg>
